<svg width="16" height="16" viewBox="0 0 16 16" fill="none" xmlns="http://www.w3.org/2000/svg">
<mask id="mask0_1144_10110" style="mask-type:alpha" maskUnits="userSpaceOnUse" x="0" y="0" width="16" height="16">
<rect width="16" height="16" fill="#D9D9D9"/>
</mask>
<g mask="url(#mask0_1144_10110)">
<path d="M4.33333 12.9998C3.41111 12.9998 2.62489 12.6802 1.97467 12.0411C1.32489 11.4025 0.999999 10.622 0.999999 9.6998C0.999999 8.87758 1.26111 8.1498 1.78333 7.51647C2.30555 6.88314 2.97222 6.51092 3.78333 6.39981C3.92778 5.58869 4.36956 4.82758 5.10867 4.11647C5.84733 3.40536 6.64444 3.04981 7.5 3.04981C7.77778 3.04981 8.01378 3.14981 8.208 3.34981C8.40267 3.54981 8.5 3.78314 8.5 4.04981L8.5 8.49981L9.71667 7.29981L10.4167 7.99981L8 10.4165L5.58333 7.99981L6.28333 7.29981L7.5 8.49981L7.5 4.04981C6.65556 4.14981 5.97222 4.53869 5.45 5.21647C4.92778 5.89425 4.66667 6.59981 4.66667 7.33314L4.33333 7.33314C3.68889 7.33314 3.13889 7.56092 2.68333 8.01647C2.22778 8.47203 2 9.02203 2 9.66647C2 10.3109 2.22778 10.8609 2.68333 11.3165C3.13889 11.772 3.68889 11.9998 4.33333 11.9998L12.3333 11.9998C12.8 11.9998 13.1944 11.8387 13.5167 11.5165C13.8389 11.1943 14 10.7998 14 10.3331C14 9.86647 13.8389 9.47203 13.5167 9.14981C13.1944 8.82758 12.8 8.66647 12.3333 8.66647L11.3333 8.66647L11.3333 7.33314C11.3333 6.7887 11.2111 6.28581 10.9667 5.82447C10.7222 5.36358 10.4 4.97758 10 4.66647L10 3.49981C10.7222 3.86647 11.2916 4.39425 11.708 5.08314C12.1249 5.77203 12.3333 6.52203 12.3333 7.33314L12.3333 7.66647L12.5333 7.66647C13.2444 7.72203 13.8333 8.00536 14.3 8.51647C14.7667 9.02758 15 9.63314 15 10.3331C15 11.0776 14.7416 11.708 14.2247 12.2245C13.7082 12.7414 13.0778 12.9998 12.3333 12.9998L4.33333 12.9998Z" fill="#452FF4"/>
</g>
</svg>
