<svg width="16" height="16" viewBox="0 0 16 16" fill="none" xmlns="http://www.w3.org/2000/svg">
<g clip-path="url(#clip0_1144_36795)">
<path d="M6.37822 6.88102C6.41891 6.89787 6.46162 6.90607 6.50397 6.90607C6.58952 6.90607 6.67361 6.87265 6.73649 6.80977L10.5127 3.03353C10.5744 2.97186 10.609 2.88825 10.609 2.80105C10.609 2.71384 10.5744 2.6302 10.5127 2.56857C9.44166 1.49788 8.01803 0.908203 6.50404 0.908203C6.32247 0.908203 6.17529 1.05538 6.17529 1.23695L6.17529 6.57729C6.17529 6.71024 6.25537 6.83012 6.37822 6.88102ZM6.83279 1.57623C7.93857 1.64741 8.97535 2.07679 9.80785 2.80856L6.83279 5.78361L6.83279 1.57623Z" fill="#452FF4"/>
<path d="M14.6147 6.33017C15.063 5.98719 15.3529 5.44711 15.3529 4.84037C15.3529 3.80633 14.5116 2.96504 13.4776 2.96504C12.4435 2.96504 11.6023 3.80633 11.6023 4.84037C11.6023 5.30495 11.7725 5.73025 12.0533 6.05817L10.7371 6.05817C10.465 5.51621 10.1096 5.02368 9.67801 4.59208C9.54966 4.46369 9.34151 4.46369 9.21309 4.59208L5.9978 7.80705L5.9978 3.26039C5.9978 3.07882 5.85063 2.93164 5.66905 2.93164C2.54311 2.93164 -4.44658e-07 5.47479 -9.91208e-07 8.60069C-1.53779e-06 11.7268 2.54311 14.2701 5.66905 14.2701C8.79516 14.2701 11.3384 11.7268 11.3384 8.60069C11.3384 8.43068 11.3305 8.26021 11.3154 8.09078L11.3775 8.09078C11.5014 8.09078 11.6022 8.19159 11.6022 8.31551L11.6022 14.3176C11.6022 14.7444 11.9495 15.0917 12.3764 15.0917L14.5788 15.0917C15.0056 15.0917 15.3529 14.7444 15.3529 14.3176L15.3529 11.5115C15.7297 11.3763 16 11.0154 16 10.5926L16 8.58059C16 7.59877 15.4357 6.74675 14.6147 6.33017ZM12.2597 4.84037C12.2597 4.16885 12.8061 3.62254 13.4775 3.62254C14.149 3.62254 14.6953 4.16885 14.6953 4.84037C14.6953 5.51189 14.149 6.05817 13.4775 6.05817C12.8061 6.05817 12.2597 5.51189 12.2597 4.84037ZM5.3403 3.59984L5.3403 7.90481L2.01704 5.17223C2.86162 4.27315 4.03346 3.68486 5.3403 3.59984ZM0.657501 8.60069C0.657501 7.51166 1.00688 6.50281 1.59915 5.6799L5.26507 8.6942L3.29145 13.0117C1.72435 12.1635 0.657501 10.5044 0.657501 8.60069ZM10.6809 8.60069C10.6809 11.3642 8.4326 13.6126 5.66905 13.6126C5.04249 13.6126 4.44257 13.4967 3.88916 13.2857L5.94382 8.79081L9.43799 5.29695C9.64573 5.53352 9.82952 5.78804 9.98863 6.05817L9.3123 6.05817C8.75191 6.05817 8.29601 6.51406 8.29601 7.07446C8.29601 7.63486 8.7519 8.09078 9.3123 8.09078L10.6542 8.09078C10.6714 8.26 10.6809 8.43054 10.6809 8.60069ZM15.3425 10.5926C15.3425 10.7684 15.1993 10.9114 15.0234 10.911C14.8429 10.9106 14.6954 11.0713 14.6954 11.2518L14.6954 14.3176C14.6954 14.382 14.6432 14.4343 14.5787 14.4343L13.9409 14.4343C13.8665 14.4343 13.8063 14.374 13.8063 14.2996L13.8063 11.6855C13.8063 11.5104 13.6742 11.3575 13.4994 11.3462C13.308 11.3338 13.1488 11.4855 13.1488 11.6742L13.1488 14.2996C13.1488 14.374 13.0885 14.4342 13.0142 14.4342L12.3764 14.4342C12.3119 14.4342 12.2597 14.382 12.2597 14.3176L12.2597 8.31555C12.2597 7.8283 11.8647 7.43332 11.3775 7.43332L9.32282 7.43332C9.13609 7.43332 8.97265 7.29503 8.95514 7.10913C8.93504 6.89583 9.10301 6.7157 9.3123 6.7157L13.4775 6.71571C14.5075 6.71571 15.3425 7.55066 15.3425 8.58066L15.3425 10.5926Z" fill="#452FF4"/>
</g>
<defs>
<clipPath id="clip0_1144_36795">
<rect width="16" height="16" fill="white"/>
</clipPath>
</defs>
</svg>
