<svg width="16" height="16" viewBox="0 0 16 16" fill="none" xmlns="http://www.w3.org/2000/svg">
<path d="M13.5 12C13.2772 12.0011 13.0575 12.0525 12.8573 12.1504L10.7071 10L9 10L9 11L10.2929 11L12.1502 12.8574C12.0525 13.0576 12.0012 13.2772 12 13.5C12 13.7967 12.088 14.0867 12.2528 14.3334C12.4176 14.58 12.6519 14.7723 12.926 14.8858C13.2001 14.9994 13.5017 15.0291 13.7926 14.9712C14.0836 14.9133 14.3509 14.7704 14.5607 14.5607C14.7704 14.3509 14.9133 14.0836 14.9712 13.7926C15.0291 13.5017 14.9994 13.2001 14.8858 12.926C14.7723 12.6519 14.58 12.4176 14.3334 12.2528C14.0867 12.088 13.7967 12 13.5 12ZM13.5 14C13.4011 14 13.3044 13.9707 13.2222 13.9157C13.14 13.8608 13.0759 13.7827 13.0381 13.6913C13.0002 13.6 12.9903 13.4994 13.0096 13.4025C13.0289 13.3055 13.0765 13.2164 13.1464 13.1464C13.2164 13.0765 13.3055 13.0289 13.4025 13.0096C13.4994 12.9903 13.6 13.0002 13.6913 13.0381C13.7827 13.0759 13.8608 13.14 13.9157 13.2222C13.9707 13.3044 14 13.4011 14 13.5C13.9999 13.6326 13.9472 13.7597 13.8534 13.8534C13.7597 13.9472 13.6326 13.9999 13.5 14Z" fill="#452FF4"/>
<path d="M13.5 6.5C13.1908 6.50094 12.8895 6.59756 12.6374 6.77662C12.3853 6.95567 12.1949 7.20836 12.0921 7.5L9 7.5L9 8.5L12.0921 8.5C12.1843 8.75854 12.3457 8.98678 12.5588 9.15978C12.7719 9.33279 13.0284 9.4439 13.3003 9.48097C13.5723 9.51805 13.8492 9.47967 14.1008 9.37002C14.3524 9.26038 14.569 9.08368 14.727 8.85925C14.885 8.63481 14.9783 8.37127 14.9966 8.09742C15.015 7.82357 14.9577 7.54995 14.831 7.30645C14.7044 7.06295 14.5133 6.85894 14.2785 6.71672C14.0438 6.57449 13.7745 6.49952 13.5 6.5ZM13.5 8.5C13.4011 8.5 13.3044 8.47068 13.2222 8.41574C13.14 8.3608 13.0759 8.28271 13.0381 8.19134C13.0002 8.09998 12.9903 7.99945 13.0096 7.90246C13.0289 7.80547 13.0765 7.71638 13.1464 7.64645C13.2164 7.57652 13.3055 7.5289 13.4025 7.50961C13.4994 7.49032 13.6 7.50022 13.6913 7.53806C13.7827 7.57591 13.8608 7.63999 13.9157 7.72222C13.9707 7.80444 14 7.90111 14 8C13.9999 8.13257 13.9472 8.25968 13.8534 8.35343C13.7597 8.44717 13.6326 8.49988 13.5 8.5Z" fill="#452FF4"/>
<path d="M13.5 1C13.1023 1.00044 12.721 1.15861 12.4398 1.43982C12.1586 1.72103 12.0004 2.10231 12 2.5C12.0017 2.73953 12.0614 2.97508 12.1741 3.1865L10.2978 5L9 5L9 6L10.7021 6L12.9016 3.8738C13.1059 3.96286 13.3275 4.00525 13.5503 3.99788C13.7731 3.99051 13.9914 3.93356 14.1894 3.83119C14.3874 3.72881 14.56 3.58358 14.6948 3.40606C14.8296 3.22854 14.9231 3.02321 14.9686 2.805C15.014 2.58679 15.0102 2.36119 14.9575 2.14463C14.9048 1.92807 14.8044 1.72598 14.6637 1.55309C14.5231 1.38019 14.3456 1.24084 14.1443 1.14516C13.943 1.04948 13.7229 0.999895 13.5 1ZM13.5 3C13.4011 3 13.3044 2.97068 13.2222 2.91574C13.14 2.86079 13.0759 2.78271 13.0381 2.69134C13.0002 2.59998 12.9903 2.49945 13.0096 2.40246C13.0289 2.30547 13.0765 2.21637 13.1464 2.14645C13.2164 2.07652 13.3055 2.0289 13.4025 2.00961C13.4994 1.99032 13.6 2.00022 13.6913 2.03806C13.7827 2.0759 13.8608 2.13999 13.9157 2.22222C13.9707 2.30444 14 2.40111 14 2.5C13.9999 2.63257 13.9472 2.75968 13.8534 2.85342C13.7597 2.94717 13.6326 2.99988 13.5 3Z" fill="#452FF4"/>
<path d="M9 3L10 3L10 2L9 2C8.71505 2.00096 8.43363 2.06317 8.17482 2.18242C7.91602 2.30167 7.68588 2.47517 7.5 2.69115C7.31412 2.47516 7.08398 2.30167 6.82518 2.18242C6.56637 2.06317 6.28495 2.00096 6 2L5.5 2C4.30693 2.00132 3.16311 2.47585 2.31948 3.31948C1.47585 4.16311 1.00132 5.30693 0.999999 6.5L0.999999 9.5C1.00132 10.6931 1.47585 11.8369 2.31948 12.6805C3.16311 13.5241 4.30693 13.9987 5.5 14L6 14C6.28495 13.999 6.56637 13.9368 6.82518 13.8176C7.08398 13.6983 7.31412 13.5248 7.5 13.3089C7.68587 13.5248 7.91602 13.6983 8.17482 13.8176C8.43363 13.9368 8.71504 13.999 9 14L10 14L10 13L9 13C8.73488 12.9997 8.4807 12.8942 8.29323 12.7068C8.10576 12.5193 8.0003 12.2651 8 12L8 4C8.0003 3.73488 8.10576 3.4807 8.29323 3.29323C8.4807 3.10576 8.73488 3.00031 9 3ZM6 13L5.5 13C4.65921 12.9985 3.84701 12.6946 3.21176 12.1438C2.5765 11.593 2.16059 10.8321 2.04 10L3 10L3 9L2 9L2 7L3.5 7C3.89769 6.99956 4.27897 6.84139 4.56018 6.56018C4.84139 6.27897 4.99956 5.89769 5 5.5L5 4.5L4 4.5L4 5.5C3.99988 5.63257 3.94716 5.75968 3.85342 5.85342C3.75968 5.94716 3.63257 5.99988 3.5 6L2.04 6C2.16059 5.1679 2.5765 4.40696 3.21176 3.85616C3.84701 3.30536 4.65921 3.00147 5.5 3L6 3C6.26512 3.00031 6.5193 3.10576 6.70677 3.29323C6.89424 3.4807 6.9997 3.73488 7 4L7 6L6 6L6 7L7 7L7 9L6 9C5.60231 9.00044 5.22103 9.15861 4.93982 9.43982C4.65861 9.72103 4.50044 10.1023 4.5 10.5L4.5 11.5L5.5 11.5L5.5 10.5C5.50012 10.3674 5.55283 10.2403 5.64658 10.1466C5.74032 10.0528 5.86743 10.0001 6 10L7 10L7 12C6.99969 12.2651 6.89424 12.5193 6.70677 12.7068C6.5193 12.8942 6.26512 12.9997 6 13Z" fill="#452FF4"/>
</svg>
