<svg width="16" height="16" viewBox="0 0 16 16" fill="none" xmlns="http://www.w3.org/2000/svg">
<path d="M8.09555 0.180324C7.11267 0.305124 6.24179 0.660644 5.48611 1.25296C5.34531 1.36496 5.17875 1.50592 5.12115 1.56992L5.00915 1.68512L3.61955 1.68512L2.22675 1.68512L2.24595 2.02768C2.29395 2.91136 2.70067 3.67328 3.39219 4.1856L3.61315 4.34896L3.47235 4.44496C3.39555 4.49616 3.29299 4.58576 3.24499 4.64672C3.16179 4.75872 3.15859 4.75872 2.91843 4.75872C2.56947 4.75872 2.44451 4.80672 2.23651 5.01488C2.03795 5.21024 1.98035 5.35104 1.98035 5.6296L1.98035 5.8056L1.84595 5.844C1.30163 6.004 0.834269 6.51632 0.731709 7.06064C0.712509 7.15664 0.699708 7.73296 0.699708 8.37328C0.699708 9.60912 0.712508 9.71792 0.879068 10.0477C0.981468 10.2494 1.27283 10.5632 1.46179 10.672C1.74355 10.8386 1.91011 10.8802 2.36787 10.9026C2.72643 10.9218 2.82579 10.9378 2.95699 11.0018C3.15555 11.0978 3.32515 11.2675 3.42451 11.4693C3.50131 11.6229 3.50131 11.6421 3.51091 12.6187L3.52051 13.6144L3.40851 13.6528C3.20675 13.7264 2.83219 13.9986 2.62083 14.2227C2.26227 14.6101 2.04771 15.0648 1.99651 15.5547L1.97411 15.7725L2.23347 15.7725L2.49283 15.7725L2.49283 15.6509C2.49603 15.129 2.88659 14.479 3.35091 14.2261L3.51747 14.1365L3.51747 14.953L3.51747 15.7726L3.77363 15.7726L4.02979 15.7726L4.02979 14.8762L4.02979 13.9797L5.14403 13.9797L6.25507 13.9797L7.44931 14.9114L8.64035 15.8398L9.83459 14.9114L11.0256 13.9797L12.1303 13.9797C13.3725 13.9797 13.4879 13.9957 13.8656 14.1942C14.3843 14.4664 14.7845 15.1003 14.7877 15.651L14.7877 15.7726L15.0439 15.7726C15.3416 15.7726 15.332 15.7886 15.2552 15.3821C15.1592 14.8891 14.9287 14.4728 14.5509 14.1174C14.2691 13.8517 14.045 13.7173 13.6768 13.5827L13.3951 13.4835L12.3 13.4739L11.2018 13.4611L11.2018 12.5934L11.205 11.7226L11.3875 11.6138C12.5266 10.9285 13.4039 9.67345 13.66 8.35425C13.7112 8.10129 13.7464 8.00529 13.8426 7.86433C13.9898 7.64977 14.1211 7.36801 14.1947 7.11185C14.2779 6.82689 14.3035 5.39569 14.2299 5.11393C14.1531 4.80657 13.9578 4.52801 13.724 4.38721C13.6984 4.37121 13.6408 4.20785 13.5928 4.02865C13.0933 2.09809 11.5245 0.619045 9.57779 0.244324C9.17763 0.167524 8.45411 0.135524 8.09555 0.180324ZM9.61635 0.756645C11.0155 1.0576 12.1584 1.95728 12.7859 3.25712C12.9525 3.60609 13.1509 4.19521 13.1125 4.23361C13.0741 4.27521 12.7219 4.18241 12.4978 4.07361C12.0368 3.85265 11.8735 3.63505 11.4861 2.72897C11.3387 2.38321 11.2107 2.10144 11.2011 2.10144C11.1915 2.10144 11.0634 2.38321 10.9162 2.72897C10.628 3.40129 10.4743 3.66385 10.2631 3.84961C10.0965 3.9936 9.74115 4.16977 9.52019 4.21457C9.40819 4.23697 8.58851 4.24656 6.97171 4.24016L4.58963 4.23056L4.36547 4.15376C3.95891 4.0192 3.71235 3.8688 3.42099 3.57424C3.05923 3.21568 2.85427 2.81536 2.76787 2.3L2.74867 2.1976L3.97171 2.1976L5.19155 2.1976L5.44131 1.95744C6.17443 1.25952 7.05171 0.830404 8.03459 0.692804C8.38371 0.644644 9.25459 0.679845 9.61635 0.756645ZM11.2619 3.47808C11.3131 3.62864 11.5053 3.90065 11.6877 4.08321L11.8511 4.24657L11.2011 4.24657L10.5544 4.24657L10.7754 4.00961C10.9035 3.87185 11.0379 3.68624 11.0923 3.57744C11.1435 3.47184 11.1947 3.38208 11.2077 3.38208C11.2171 3.38208 11.2427 3.42688 11.2619 3.47808ZM13.5864 4.89329C13.644 4.95729 13.708 5.06289 13.7272 5.13345C13.7464 5.20385 13.7624 5.57521 13.7624 6.01073C13.7624 6.65745 13.7528 6.80161 13.6984 7.01281C13.612 7.34897 13.4999 7.54433 13.2341 7.81329C12.5906 8.46321 11.5853 8.52401 10.868 7.95728L10.7112 7.83248L8.63331 7.83248L6.55219 7.83248L6.42739 7.94128C6.13603 8.18784 5.71347 8.34464 5.32275 8.34464C5.06979 8.34464 4.68243 8.24544 4.44227 8.11728C4.19251 7.98272 3.83075 7.60176 3.70595 7.3424C3.53635 6.98384 3.51379 6.78528 3.52339 5.8728C3.53299 5.10128 3.53619 5.04672 3.60019 4.96032C3.63539 4.91232 3.71539 4.84512 3.77635 4.81312C3.87875 4.76192 4.16371 4.75872 8.68131 4.76512L13.4807 4.77473L13.5864 4.89329ZM3.00483 6.03952L3.00483 6.80784L2.81267 6.80784C2.49251 6.80784 2.49251 6.80464 2.49251 6.03936C2.49251 5.27408 2.49251 5.27088 2.81267 5.27088L3.00483 5.27088L3.00483 6.03952ZM1.98019 6.48128C1.98019 6.70544 2.06339 6.91344 2.21075 7.064C2.39971 7.26256 2.55011 7.32016 2.88307 7.32016L3.16163 7.32016L3.23843 7.48672C3.28003 7.57952 3.36963 7.73328 3.43379 7.82928C3.52979 7.97008 3.56499 8.06624 3.61635 8.3352C3.79571 9.26048 4.29187 10.1986 4.96099 10.8709C5.24915 11.1654 5.64931 11.4824 5.91507 11.633L6.07843 11.7226L6.07843 12.5934L6.07843 13.4643L5.05395 13.4739L4.02947 13.4835L4.02947 12.635C4.02947 11.713 4.01027 11.569 3.85011 11.2518C3.74771 11.0501 3.45635 10.7363 3.26739 10.6275C2.98563 10.4611 2.81907 10.4194 2.36131 10.397C2.00275 10.3778 1.90355 10.3618 1.77219 10.2978C1.57363 10.2018 1.40403 10.032 1.30467 9.8304L1.22787 9.67344L1.22787 8.3448L1.22787 7.01616L1.30467 6.85936C1.40067 6.664 1.57043 6.4912 1.75619 6.39824C1.96099 6.29552 1.98019 6.30192 1.98019 6.48128ZM10.6824 8.46321C11.3291 8.89233 12.2288 8.97553 12.8883 8.66817C12.9971 8.61377 13.0901 8.58177 13.0901 8.59457C13.0901 8.67457 12.8979 9.16129 12.7699 9.42065C12.4658 10.0162 11.9664 10.6021 11.4381 10.9734C11.0026 11.284 9.77955 11.9531 9.44019 12.0653C9.15523 12.1613 9.10723 12.1677 8.65587 12.1677C8.14355 12.1677 7.94515 12.1325 7.59923 11.9787C7.31107 11.8539 6.11043 11.1654 5.84147 10.9734C5.30675 10.5957 4.77843 9.97136 4.49027 9.38544C4.36867 9.13248 4.18931 8.66512 4.18931 8.59792C4.18931 8.58512 4.27891 8.61392 4.39107 8.66512C5.06979 8.97248 5.94067 8.89568 6.57779 8.47296L6.76675 8.34816L8.63651 8.34497L10.5063 8.34497L10.6824 8.46321ZM6.97491 12.2251C7.60883 12.5677 8.02179 12.6829 8.63971 12.6829C9.25763 12.6829 9.67075 12.5677 10.3045 12.2251C10.4903 12.1259 10.6503 12.0362 10.6663 12.033C10.6791 12.0266 10.6887 12.3787 10.6855 12.8174L10.6855 13.6115L9.66099 14.4024L8.63955 15.1965L7.61827 14.4024L6.59379 13.6115L6.59379 12.8174C6.59059 12.3787 6.60019 12.0266 6.61619 12.033C6.62915 12.0362 6.78915 12.1259 6.97491 12.2251Z" fill="#452FF4"/>
<path d="M4.5415 6.80829L4.5415 7.06445L7.99926 7.06445L11.457 7.06445L11.457 6.80829L11.457 6.55213L7.99926 6.55213L4.5415 6.55213L4.5415 6.80829Z" fill="#452FF4"/>
<path d="M11.9697 6.80829L11.9697 7.06445L12.3539 7.06445L12.738 7.06445L12.738 6.80829L12.738 6.55213L12.3539 6.55213L11.9697 6.55213L11.9697 6.80829Z" fill="#452FF4"/>
</svg>
