<svg width="15" height="12" viewBox="0 0 15 12" fill="none" xmlns="http://www.w3.org/2000/svg">
<path d="M10.1999 1.7004C9.69324 1.70032 9.20677 1.89915 8.8452 2.25411C8.48363 2.60908 8.27586 3.0918 8.2666 3.5984L8.24793 4.6484C8.24684 4.70478 8.23384 4.76029 8.20978 4.81128C8.18573 4.86228 8.15117 4.90762 8.10836 4.94432C8.06555 4.98102 8.01547 5.00826 7.96139 5.02424C7.90732 5.04023 7.85048 5.0446 7.7946 5.03707L6.75393 4.89574C5.3846 4.70907 4.0726 4.0784 2.81393 3.02974C2.41527 5.2364 3.19393 6.76507 5.06926 7.9444L6.23393 8.6764C6.28927 8.71118 6.33524 8.75898 6.36783 8.81564C6.40042 8.87229 6.41862 8.93607 6.42086 9.00139C6.4231 9.06671 6.4093 9.13158 6.38066 9.19033C6.35202 9.24908 6.30943 9.29992 6.2566 9.3384L5.19526 10.1137C5.8266 10.1531 6.42593 10.1251 6.92326 10.0264C10.0686 9.3984 12.1599 7.03173 12.1599 3.12773C12.1599 2.80907 11.4853 1.7004 10.1999 1.7004ZM6.93326 3.57373C6.9449 2.9311 7.14586 2.30618 7.51097 1.77722C7.87608 1.24825 8.38913 0.838748 8.98588 0.59998C9.58262 0.361211 10.2365 0.303788 10.8658 0.4349C11.495 0.566012 12.0715 0.879832 12.5233 1.33707C12.9973 1.33374 13.4006 1.45374 14.3026 0.907069C14.0793 2.0004 13.9693 2.47507 13.4933 3.12773C13.4933 8.2224 10.3619 10.6997 7.1846 11.3337C5.00593 11.7684 1.83793 11.0544 0.929932 10.1064C1.3926 10.0704 3.2726 9.8684 4.35926 9.07307C3.43993 8.46707 -0.219402 6.31374 2.18526 0.524402C3.31393 1.8424 4.4586 2.73973 5.6186 3.21573C6.3906 3.5324 6.57993 3.52573 6.93393 3.5744L6.93326 3.57373Z" fill="#F0EDE6"/>
</svg>
