<svg width="16" height="16" viewBox="0 0 16 16" fill="none" xmlns="http://www.w3.org/2000/svg">
<g clip-path="url(#clip0_1144_42329)">
<path d="M2.35609 8.21003C2.78043 8.21003 3.12575 7.86471 3.12575 7.44037C3.12575 7.23128 3.04134 7.04169 2.90537 6.90289L3.95673 4.59006C4.01959 4.60673 4.08424 4.61828 4.15197 4.61828C4.28076 4.61828 4.40031 4.58364 4.50704 4.52746L5.96067 5.77354C5.95375 5.8151 5.94785 5.85743 5.94785 5.90105C5.94785 6.32539 6.29317 6.67071 6.71751 6.67071C7.14185 6.67071 7.48717 6.32539 7.48717 5.90105C7.48717 5.77559 7.45408 5.6586 7.40071 5.55393L9.22738 3.52433C9.32307 3.56717 9.42826 3.59206 9.5396 3.59206C9.96394 3.59206 10.3093 3.24674 10.3093 2.8224C10.3093 2.39806 9.96395 2.05274 9.5396 2.05274C9.11526 2.05274 8.76994 2.39806 8.76994 2.8224C8.76994 2.94785 8.80304 3.06459 8.8564 3.16952L7.02973 5.19912C6.9343 5.15627 6.82885 5.13139 6.71751 5.13139C6.52663 5.13139 6.35397 5.20373 6.21928 5.31944L4.85852 4.15289C4.8988 4.0595 4.92163 3.95688 4.92163 3.84861C4.92163 3.42427 4.57631 3.07895 4.15197 3.07895C3.72763 3.07895 3.3823 3.42427 3.3823 3.84861C3.3823 4.01537 3.43695 4.16879 3.52726 4.29502L2.44332 6.67969C2.41433 6.6761 2.3861 6.67071 2.35609 6.67071C1.93175 6.67071 1.58642 7.01603 1.58642 7.44037C1.58642 7.86471 1.93175 8.21003 2.35609 8.21003ZM9.5396 2.56584C9.68097 2.56584 9.79616 2.68078 9.79616 2.8224C9.79616 2.96402 9.68097 3.07895 9.5396 3.07895C9.39824 3.07895 9.28305 2.96402 9.28305 2.8224C9.28305 2.68078 9.39824 2.56584 9.5396 2.56584ZM6.71751 5.64449C6.85887 5.64449 6.97406 5.75943 6.97406 5.90105C6.97406 6.04267 6.85887 6.1576 6.71751 6.1576C6.57615 6.1576 6.46095 6.04267 6.46095 5.90105C6.46095 5.75943 6.57615 5.64449 6.71751 5.64449ZM4.15197 3.59206C4.29333 3.59206 4.40852 3.707 4.40852 3.84861C4.40852 3.99023 4.29333 4.10517 4.15197 4.10517C4.01061 4.10517 3.89541 3.99023 3.89541 3.84861C3.89541 3.707 4.01061 3.59206 4.15197 3.59206ZM2.35609 7.18382C2.49745 7.18382 2.61264 7.29875 2.61264 7.44037C2.61264 7.58199 2.49745 7.69693 2.35609 7.69693C2.21473 7.69693 2.09953 7.58199 2.09953 7.44037C2.09953 7.29875 2.21473 7.18382 2.35609 7.18382Z" fill="#452FF4"/>
<path d="M10.309 7.69727L9.7959 7.69727L9.7959 8.21037L10.309 8.21037L10.309 7.69727Z" fill="#452FF4"/>
<path d="M9.2829 7.69727L7.23047 7.69727L7.23047 8.21037L9.2829 8.21037L9.2829 7.69727Z" fill="#452FF4"/>
<path d="M7.55801 10.7753L7.35277 10.2622L11.8484 10.2622L11.8484 8.72284L11.3353 8.72284L11.3353 1.53933L11.8484 1.53933L11.8484 2.06344e-06L0.046875 0L0.0468747 1.53932L0.559983 1.53933L0.559982 8.72284L0.0468735 8.72284L0.0468732 10.2622L4.54555 10.2622L2.37356 15.813L2.85127 16L5.09637 10.2622L5.69106 10.2622L5.69106 15.9064L6.20417 15.9064L6.20417 10.2622L6.80015 10.2622L7.23039 11.3379L7.23039 15.9064L15.9532 15.9064L15.9532 10.7753L7.55801 10.7753ZM0.559983 0.513108L11.3353 0.51311L11.3353 1.02622L0.559983 1.02622L0.559983 0.513108ZM10.8221 1.53933L10.8221 8.72284L1.07309 8.72284L1.07309 1.53933L10.8221 1.53933ZM0.559982 9.74906L0.559982 9.23595L11.3353 9.23595L11.3353 9.74906L0.559982 9.74906ZM13.9008 11.2884L14.4139 11.2884L14.4139 12.3146L13.9008 12.3146L13.9008 11.2884ZM12.3615 15.3933L7.7435 15.3933L7.7435 11.2884L12.3615 11.2884L12.3615 15.3933ZM15.4401 15.3933L12.8746 15.3933L12.8746 11.2884L13.3877 11.2884L13.3877 12.8277L14.927 12.8277L14.927 11.2884L15.4401 11.2884L15.4401 15.3933Z" fill="#452FF4"/>
<path d="M11.8486 14.3672L11.3354 14.3672L11.3354 14.8803L11.8486 14.8803L11.8486 14.3672Z" fill="#452FF4"/>
<path d="M10.8222 14.3672L10.3091 14.3672L10.3091 14.8803L10.8222 14.8803L10.8222 14.3672Z" fill="#452FF4"/>
<path d="M11.8486 13.3398L11.3354 13.3398L11.3354 13.853L11.8486 13.853L11.8486 13.3398Z" fill="#452FF4"/>
</g>
<defs>
<clipPath id="clip0_1144_42329">
<rect width="16" height="16" fill="white"/>
</clipPath>
</defs>
</svg>
