<svg width="34" height="36" viewBox="0 0 34 36" fill="none" xmlns="http://www.w3.org/2000/svg">
<path d="M32.4707 13.7288C32.0022 13.0006 31.7408 11.422 31.7989 10.4615C31.9351 8.21772 30.7427 5.98969 28.9002 5.04425C28.5449 4.86146 28.2253 4.76946 27.9433 4.68835C27.4584 4.54853 27.2581 4.49043 27.0747 4.10971C26.1087 2.10201 25.0398 1.82116 23.0127 1.9525C22.8226 1.98821 22.5696 1.67408 22.3087 1.39565C21.8602 0.915665 21.261 0.274678 20.3107 0.165728L20.0051 0.135464C18.7576 0.135464 17.6354 0.587 16.9841 1.25341C16.6615 0.90477 16.2517 0.599711 15.8408 0.381812C15.0406 -0.0424867 14.2913 -0.115725 13.7544 0.178439C12.8114 0.364864 12.2073 0.962877 11.7606 1.40473C11.4077 1.75397 11.1868 1.97611 10.9852 1.9519C8.95696 1.82176 7.88986 2.10261 6.92324 4.1091C6.74044 4.48982 6.5401 4.54793 6.05527 4.68775C5.77382 4.76885 5.45423 4.86085 5.09833 5.04365C3.25587 5.98969 2.06408 8.21711 2.19966 10.4609C2.25777 11.422 1.99629 13 1.52781 13.7281C0.373544 15.5246 0.373544 18.0341 1.52781 19.8305C1.70636 20.1078 1.96784 20.4304 2.27048 20.8044C2.81039 21.4714 3.71467 22.587 3.6838 23.0978C3.5464 25.3591 4.92643 27.9648 6.75981 28.906C7.08969 29.0755 7.14537 29.2468 7.27006 29.7655C7.33906 30.0524 7.42501 30.4089 7.61022 30.7927C8.10837 31.8283 8.88978 32.1255 9.45995 32.3428C10.0265 32.5577 10.2607 32.6473 10.3467 33.2683C10.6257 35.2899 11.898 35.9999 13.0644 35.9999C13.1309 35.9999 13.1969 35.9975 13.2629 35.9932C14.6926 35.8946 16.1906 34.8002 16.9993 33.1103C17.8079 34.8008 19.3054 35.8952 20.7356 35.9932C20.801 35.9975 20.8676 35.9999 20.9342 35.9999C22.1005 35.9999 23.3728 35.2893 23.6519 33.2683C23.7378 32.6473 23.972 32.5577 24.5386 32.3428C25.1088 32.1255 25.8902 31.8283 26.3889 30.7927C26.5735 30.4089 26.6595 30.0518 26.7285 29.7655C26.8538 29.2474 26.9088 29.0755 27.2387 28.906C29.0715 27.9648 30.4515 25.3597 30.3147 23.0978C30.2839 22.587 31.1881 21.4708 31.7281 20.8044C32.0307 20.4304 32.2922 20.1078 32.4707 19.8305C33.625 18.0347 33.625 15.5246 32.4707 13.7288ZM13.1806 34.7863C12.2866 34.8323 11.7049 34.25 11.5469 33.1036C11.3629 31.772 10.5125 31.4482 9.89151 31.2122C9.38853 31.0209 8.99086 30.8696 8.70214 30.2685C8.57322 30.0016 8.50966 29.7371 8.44793 29.4817C8.44732 29.4786 8.44611 29.4756 8.44551 29.4726C8.49211 29.3866 8.52601 29.2928 8.52601 29.1881C8.52601 27.5194 9.88364 26.1617 11.5524 26.1617C11.8865 26.1617 12.1577 25.8912 12.1577 25.5564C12.1577 25.2217 11.8865 24.9512 11.5524 24.9512C9.64879 24.9512 8.03573 26.2132 7.50249 27.9437C7.44196 27.9049 7.38325 27.8656 7.31303 27.8299C5.91666 27.1132 4.78601 24.9366 4.89254 23.1723C4.95185 22.1917 4.0276 21.0502 3.21168 20.043C2.94294 19.7113 2.68933 19.3984 2.54709 19.1762C1.63978 17.7653 1.63978 15.7946 2.54709 14.3837C3.17839 13.4019 3.48103 11.5812 3.4084 10.3876C3.30247 8.63657 4.24549 6.84253 5.65155 6.12043C5.90274 5.99151 6.15151 5.92009 6.3912 5.85048C6.64541 5.77724 6.91416 5.69553 7.172 5.55329C7.21922 5.56479 7.26461 5.58234 7.31485 5.58234C8.65009 5.58234 9.73595 6.66821 9.73595 8.00345C9.73595 8.33816 10.0071 8.60872 10.3412 8.60872C10.6753 8.60872 10.9465 8.33816 10.9465 8.00345C10.9465 6.27236 9.72809 4.82212 8.10413 4.46077C8.64585 3.40214 9.10465 3.13037 10.1609 3.13037C10.3812 3.13037 10.6281 3.14187 10.9072 3.16003C11.6595 3.20663 12.1655 2.70728 12.6122 2.26483C13.0365 1.84537 13.4366 1.44831 14.0619 1.35328L14.261 1.31636L14.3554 1.2292C14.4716 1.17896 14.7973 1.19772 15.2736 1.45012C15.9685 1.81874 16.3946 2.37499 16.3946 2.55536V7.43933C14.0098 7.73894 12.1577 9.77509 12.1577 12.2398C12.1577 14.2426 10.5289 15.8714 8.52601 15.8714C8.1919 15.8714 7.92073 16.142 7.92073 16.4767C7.92073 16.8114 8.1919 17.082 8.52601 17.082C11.1959 17.082 13.3682 14.9096 13.3682 12.2398C13.3682 10.4439 14.6798 8.95252 16.3946 8.66259V30.3981C16.3946 33.0812 14.494 34.6955 13.1806 34.7863ZM31.452 19.1762C31.3098 19.3978 31.0562 19.7113 30.7875 20.043C30.5429 20.345 30.2905 20.6598 30.0557 20.9781C29.4068 19.0679 27.6001 17.6879 25.4731 17.6879C23.4703 17.6879 21.8415 16.0591 21.8415 14.0562C21.8415 13.7215 21.5703 13.4509 21.2362 13.4509C20.9021 13.4509 20.6309 13.7215 20.6309 14.0562C20.6309 16.7261 22.8033 18.8984 25.4731 18.8984C27.476 18.8984 29.1048 20.5272 29.1048 22.5301C29.1048 22.6009 29.1229 22.6669 29.1453 22.7304C29.1151 22.8799 29.0975 23.0282 29.106 23.1723C29.2125 24.9366 28.0819 27.1138 26.6855 27.8299C26.6159 27.8656 26.5572 27.9055 26.496 27.9437C25.9634 26.2132 24.3497 24.9512 22.4461 24.9512C22.112 24.9512 21.8409 25.2217 21.8409 25.5564C21.8409 25.8912 22.112 26.1617 22.4461 26.1617C24.1149 26.1617 25.4725 27.5194 25.4725 29.1881C25.4725 29.2928 25.5064 29.3866 25.553 29.4726C25.5524 29.4756 25.5512 29.4786 25.5506 29.4817C25.4889 29.7371 25.4253 30.001 25.297 30.2685C25.0077 30.869 24.6106 31.0203 24.1076 31.2122C23.4866 31.4482 22.6356 31.772 22.4522 33.1036C22.2936 34.2506 21.7059 34.8311 20.8186 34.7863C19.5051 34.6961 17.6045 33.0818 17.6045 30.3987V2.55596C17.6045 2.09959 18.487 1.43681 19.7418 1.35449L20.0256 1.35994C20.5783 1.35994 20.9227 1.68558 21.4244 2.22246C21.8566 2.68428 22.3535 3.19513 23.0908 3.16063C24.7153 3.05774 25.2455 3.18545 25.9059 4.48619C24.6155 4.8318 23.6573 6.00059 23.6573 7.39878C23.6573 7.73349 23.9285 8.00405 24.2626 8.00405C24.5967 8.00405 24.8679 7.73349 24.8679 7.39878C24.8679 6.39765 25.6826 5.58295 26.6837 5.58295C26.7345 5.58295 26.7799 5.566 26.8265 5.55389C27.0844 5.69614 27.3531 5.77785 27.6073 5.85109C27.847 5.92069 28.0958 5.99212 28.347 6.12104C29.7524 6.84253 30.6961 8.63717 30.5901 10.3882C30.5175 11.5818 30.8201 13.4019 31.4514 14.3843C32.3594 15.7946 32.3594 17.7647 31.452 19.1762Z" fill="#452FF4"/>
<path d="M14.9036 16.8623C14.6669 16.6256 14.2844 16.6256 14.0477 16.8623C13.2191 17.6903 12.7627 18.7919 12.7627 19.9619C12.7627 20.9419 13.0865 21.8704 13.6767 22.6336C13.0865 23.3969 12.7627 24.326 12.7627 25.3053C12.7627 26.4759 13.2191 27.5769 14.0477 28.4049C14.1657 28.523 14.3207 28.5823 14.4756 28.5823C14.6306 28.5823 14.7855 28.523 14.9036 28.4049C15.1402 28.1683 15.1402 27.7857 14.9036 27.5491C14.3037 26.9492 13.9732 26.1521 13.9732 25.3053C13.9732 24.4585 14.3037 23.6614 14.9036 23.0615C15.1402 22.8249 15.1402 22.4424 14.9036 22.2057C14.3037 21.6059 13.9732 20.8087 13.9732 19.9619C13.9732 19.1151 14.3037 18.318 14.9036 17.7182C15.1396 17.4821 15.1396 17.099 14.9036 16.8623Z" fill="#452FF4"/>
<path d="M19.9118 18.8857C19.6751 19.1224 19.6751 19.5049 19.9118 19.7416C21.0364 20.8668 21.0364 22.6978 19.9118 23.823C19.1377 24.5971 18.7109 25.6261 18.7109 26.7192C18.7109 27.8124 19.1377 28.8413 19.9118 29.6155C20.0298 29.7335 20.1848 29.7928 20.3397 29.7928C20.4947 29.7928 20.6496 29.7335 20.7677 29.6155C21.0043 29.3788 21.0043 28.9963 20.7677 28.7596C20.2223 28.2143 19.9215 27.4891 19.9215 26.7192C19.9215 25.9493 20.2223 25.2242 20.7677 24.6788C22.3644 23.0815 22.3644 20.4825 20.7677 18.8857C20.531 18.6491 20.1479 18.6491 19.9118 18.8857Z" fill="#452FF4"/>
<path d="M27.7827 13.1296C26.2193 13.4038 24.7164 12.3536 24.441 10.7866C24.2515 9.70857 23.6541 8.76858 22.7589 8.14091C21.8637 7.51323 20.776 7.27173 19.698 7.46058C19.3688 7.51868 19.1485 7.83222 19.2066 8.16149C19.2647 8.49076 19.5776 8.70744 19.9075 8.65357C20.6689 8.51678 21.4334 8.6905 22.0641 9.13174C22.6948 9.5742 23.1154 10.2364 23.2492 10.996C23.5984 12.9819 25.3314 14.3849 27.2828 14.3849C27.517 14.3849 27.7543 14.3644 27.9928 14.3226C28.322 14.2645 28.5423 13.951 28.4842 13.6217C28.4261 13.2924 28.1144 13.0727 27.7827 13.1296Z" fill="#452FF4"/>
<path d="M7.23649 13.7979C8.23217 13.7979 9.17035 13.1853 9.53473 12.1981C9.65034 11.884 9.49054 11.536 9.17701 11.4203C8.86408 11.3053 8.51484 11.4651 8.39923 11.7787C8.16257 12.4191 7.44955 12.7471 6.81099 12.5104C5.54596 12.0456 4.13567 12.6938 3.66839 13.9589C3.55279 14.273 3.71318 14.621 4.02672 14.7367C4.09572 14.7621 4.16654 14.7742 4.23614 14.7742C4.48249 14.7742 4.7137 14.6229 4.80389 14.3789C5.03995 13.7392 5.75054 13.4093 6.39213 13.6472C6.67056 13.7488 6.95565 13.7979 7.23649 13.7979Z" fill="#452FF4"/>
<path d="M9.16417 23.0609C8.525 22.8254 8.19633 22.113 8.43178 21.4738C8.89906 20.2082 8.24899 18.7979 6.98336 18.33C6.67103 18.2156 6.32119 18.3748 6.20558 18.6883C6.08997 19.0025 6.24976 19.3505 6.5633 19.4661C7.20307 19.7022 7.53174 20.4146 7.29568 21.0538C7.29568 21.0544 7.29568 21.055 7.29568 21.055C6.82962 22.3194 7.47908 23.7291 8.74411 24.197C8.81311 24.2224 8.88392 24.2345 8.95414 24.2345C9.20048 24.2345 9.4317 24.0832 9.52188 23.8392C9.6381 23.5251 9.4777 23.1777 9.16417 23.0609Z" fill="#452FF4"/>
</svg>
