<svg width="16" height="16" viewBox="0 0 16 16" fill="none" xmlns="http://www.w3.org/2000/svg">
<g clip-path="url(#clip0_1063_15004)">
<path d="M8.6665 5.99967H11.6665L11.3332 7.33301H8.6665V13.333H7.33317V7.33301H4.6665V5.99967H7.33317V4.75167C7.33317 3.56301 7.45717 3.13167 7.68917 2.69701C7.91651 2.26755 8.26771 1.91635 8.69717 1.68901C9.13184 1.45701 9.56317 1.33301 10.7518 1.33301C11.0998 1.33301 11.4052 1.36634 11.6665 1.43301V2.66634H10.7518C9.86917 2.66634 9.6005 2.71834 9.3265 2.86501C9.12384 2.97301 8.97317 3.12367 8.86517 3.32634C8.7185 3.60034 8.6665 3.86901 8.6665 4.75167V5.99967Z" fill="#ECEAFE"/>
</g>
<defs>
<clipPath id="clip0_1063_15004">
<rect width="16" height="16" fill="white"/>
</clipPath>
</defs>
</svg>
