<svg width="16" height="16" viewBox="0 0 16 16" fill="none" xmlns="http://www.w3.org/2000/svg">
<g clip-path="url(#clip0_1144_42302)">
<path d="M10.7823 3.44336L7.84695 3.44336C7.69676 3.44336 7.57507 3.56508 7.57507 3.71523C7.57507 3.86539 7.69676 3.98711 7.84695 3.98711L10.5105 3.98711L10.5105 6.5957C10.5105 7.97986 9.38441 9.10592 8.00026 9.10592C6.6161 9.10592 5.49004 7.97986 5.49004 6.5957L5.49004 3.98711L6.53473 3.98711C6.68491 3.98711 6.8066 3.86539 6.8066 3.71523C6.8066 3.56508 6.68491 3.44336 6.53473 3.44336L5.21816 3.44336C5.06798 3.44336 4.94629 3.56508 4.94629 3.71523L4.94629 6.5957C4.94629 8.27967 6.31626 9.64967 8.00026 9.64967C9.68423 9.64967 11.0542 8.2797 11.0542 6.5957L11.0542 3.71524C11.0542 3.56508 10.9325 3.44336 10.7823 3.44336Z" fill="#452FF4"/>
<path d="M10.1423 5.49177C10.0286 4.93381 9.59996 4.57324 9.05028 4.57324C8.72074 4.57324 8.36084 4.70256 8.00015 4.94899C7.63946 4.70252 7.27959 4.57324 6.95006 4.57324C6.40046 4.57324 5.97187 4.93377 5.85818 5.49174C5.76509 5.94862 5.8899 6.4614 6.20965 6.93559C6.56677 7.46512 7.14912 7.91237 7.89377 8.22902C7.92777 8.24346 7.96396 8.25071 8.00015 8.25071C8.03634 8.25071 8.07252 8.24349 8.10652 8.22902C8.85124 7.9124 9.43362 7.46512 9.79074 6.93559C10.1106 6.46143 10.2354 5.94865 10.1423 5.49177ZM8.00018 7.68193C6.53112 7.01665 6.30234 6.03527 6.39096 5.60031C6.45356 5.29315 6.65737 5.11696 6.95006 5.11696C7.12981 5.11696 7.42881 5.1834 7.83234 5.4999C7.9309 5.57718 8.0694 5.57715 8.1679 5.4999C8.57149 5.1834 8.87046 5.11696 9.05028 5.11696C9.34309 5.11696 9.54693 5.29312 9.60953 5.60034C9.69815 6.03531 9.46934 7.01662 8.00018 7.68193Z" fill="#452FF4"/>
<path d="M10.2991 2.98972C10.4548 2.98972 10.581 2.86348 10.581 2.70775C10.581 2.55202 10.4548 2.42578 10.2991 2.42578C10.1433 2.42578 10.0171 2.55202 10.0171 2.70775C10.0171 2.86348 10.1433 2.98972 10.2991 2.98972Z" fill="#452FF4"/>
<path d="M9.21166 2.98972C9.36738 2.98972 9.49362 2.86348 9.49362 2.70775C9.49362 2.55202 9.36738 2.42578 9.21166 2.42578C9.05593 2.42578 8.92969 2.55202 8.92969 2.70775C8.92969 2.86348 9.05593 2.98972 9.21166 2.98972Z" fill="#452FF4"/>
<path d="M13.1817 4.18166C12.8945 3.85022 12.5135 3.61628 12.0932 3.50925C11.788 1.52463 10.0687 1.35896e-06 8.00001 9.97253e-07C7.06776 8.34254e-07 6.18739 0.302563 5.45401 0.875001C5.33567 0.967407 5.31461 1.13825 5.40701 1.25659C5.49942 1.37494 5.67026 1.396 5.78857 1.30359C6.42551 0.806469 7.1902 0.54372 8.00007 0.54372C9.85807 0.54372 11.3915 1.9595 11.5785 3.76885C11.5815 3.79806 11.5844 3.8301 11.5868 3.86047C11.6643 4.85563 11.5977 5.87831 11.5977 6.87625C11.5977 6.92478 11.5977 6.97331 11.5977 7.02188C11.5977 8.51341 10.6216 9.90144 9.21782 10.4073C9.14932 10.4319 9.08004 10.4544 9.0101 10.4748C8.43879 10.6406 7.82873 10.6637 7.24663 10.5399C5.84895 10.2433 4.71732 9.06266 4.46004 7.66047C4.42145 7.44997 4.40232 7.23584 4.40232 7.02188L4.40232 4.14141C4.40232 4.03538 4.4086 3.92994 4.41654 3.82428C4.47282 3.17666 4.70098 2.56234 5.08573 2.03188C5.17389 1.91034 5.14686 1.74038 5.02526 1.65216C4.90373 1.56403 4.73367 1.59103 4.64554 1.71263C4.25573 2.25013 4.00539 2.86216 3.9066 3.50925C3.48639 3.61638 3.10545 3.85025 2.81826 4.18162C2.48173 4.57 2.29639 5.06719 2.29639 5.58162C2.29639 6.09606 2.48173 6.59325 2.81826 6.98163C3.10545 7.31306 3.48645 7.54697 3.90673 7.65403C4.14145 9.17997 5.2122 10.4337 6.63485 10.9318L6.63485 11.6839C6.40154 11.72 6.17238 11.776 5.95017 11.8514C5.68217 11.9424 5.42388 12.062 5.18054 12.2065C3.94285 12.9413 3.17404 14.2908 3.17404 15.7281C3.17404 15.8783 3.29573 16 3.44592 16C3.44592 16 5.31935 16 5.31951 16C5.31951 16 10.6805 16 10.6806 16L12.5541 16C12.7043 16 12.8259 15.8783 12.8259 15.7281C12.8259 14.2907 12.0571 12.9413 10.8194 12.2065C10.8181 12.2056 10.8165 12.2051 10.8152 12.2043C10.814 12.2036 10.8131 12.2028 10.8119 12.2022C10.581 12.0658 10.337 11.9521 10.0866 11.8643C9.85326 11.7826 9.61154 11.7221 9.3651 11.6839L9.3651 10.9318C10.7878 10.4337 11.8585 9.17997 12.0933 7.65403C12.5136 7.54694 12.8946 7.31303 13.1818 6.98163C13.5183 6.59325 13.7036 6.09606 13.7036 5.58163C13.7036 5.06719 13.5183 4.57003 13.1817 4.18166ZM3.85889 7.06878C3.25985 6.83453 2.84017 6.24547 2.84017 5.58166C2.84017 4.91784 3.25982 4.32875 3.85889 4.0945C3.8587 4.11016 3.8586 4.12578 3.8586 4.14141L3.8586 7.02191C3.8586 7.0375 3.8587 7.05316 3.85889 7.06878ZM5.04751 15.4563L3.72838 15.4563C3.80451 14.4794 4.28738 13.5713 5.04751 12.9592L5.04751 15.4563ZM10.9525 12.9592C11.7127 13.5713 12.1955 14.4793 12.2717 15.4563L10.9525 15.4563L10.9525 12.9592ZM9.90682 12.3775C10.0785 12.4376 10.2468 12.5119 10.4088 12.599L10.4088 15.4563L5.59126 15.4563L5.59126 12.5988C5.75313 12.5118 5.92117 12.4376 6.09198 12.3777L6.1266 12.3657C6.38488 12.2781 6.65592 12.2206 6.93217 12.1947C7.07188 12.1816 7.1787 12.0643 7.1787 11.924L7.1787 11.0815C7.17898 11.0865 7.26595 11.098 7.27357 11.0994C7.3086 11.1057 7.34382 11.1113 7.37898 11.1167C7.58438 11.1478 7.79235 11.1633 8.0001 11.1633C8.20392 11.1633 8.40432 11.1482 8.60035 11.1196C8.67432 11.1088 8.74817 11.0963 8.82148 11.0815L8.82148 11.9239C8.82148 12.0642 8.92823 12.1815 9.06795 12.1946C9.35554 12.2217 9.63776 12.2832 9.90682 12.3775ZM12.1411 7.06881C12.1447 6.75081 12.1414 6.43253 12.1414 6.11453C12.1414 5.60913 12.1414 5.10375 12.1414 4.59831C12.1414 4.55656 12.1417 4.09447 12.1411 4.09447C12.7402 4.32869 13.1599 4.91778 13.1599 5.58166C13.1599 6.24553 12.7402 6.8346 12.1411 7.06881Z" fill="#452FF4"/>
</g>
<defs>
<clipPath id="clip0_1144_42302">
<rect width="16" height="16" fill="white"/>
</clipPath>
</defs>
</svg>
