<svg width="14" height="14" viewBox="0 0 14 14" fill="none" xmlns="http://www.w3.org/2000/svg">
<path d="M6.99992 4.99967C6.46949 4.99967 5.96078 5.21039 5.5857 5.58546C5.21063 5.96053 4.99992 6.46924 4.99992 6.99967C4.99992 7.53011 5.21063 8.03882 5.5857 8.41389C5.96078 8.78896 6.46949 8.99967 6.99992 8.99967C7.53035 8.99967 8.03906 8.78896 8.41413 8.41389C8.78921 8.03882 8.99992 7.53011 8.99992 6.99967C8.99992 6.46924 8.78921 5.96053 8.41413 5.58546C8.03906 5.21039 7.53035 4.99967 6.99992 4.99967ZM6.99992 3.66634C7.88397 3.66634 8.73182 4.01753 9.35694 4.64265C9.98206 5.26777 10.3333 6.11562 10.3333 6.99967C10.3333 7.88373 9.98206 8.73158 9.35694 9.3567C8.73182 9.98182 7.88397 10.333 6.99992 10.333C6.11586 10.333 5.26802 9.98182 4.6429 9.3567C4.01777 8.73158 3.66659 7.88373 3.66659 6.99967C3.66659 6.11562 4.01777 5.26777 4.6429 4.64265C5.26802 4.01753 6.11586 3.66634 6.99992 3.66634ZM11.3333 3.49967C11.3333 3.72069 11.2455 3.93265 11.0892 4.08893C10.9329 4.24521 10.7209 4.33301 10.4999 4.33301C10.2789 4.33301 10.0669 4.24521 9.91066 4.08893C9.75438 3.93265 9.66659 3.72069 9.66659 3.49967C9.66659 3.27866 9.75438 3.0667 9.91066 2.91042C10.0669 2.75414 10.2789 2.66634 10.4999 2.66634C10.7209 2.66634 10.9329 2.75414 11.0892 2.91042C11.2455 3.0667 11.3333 3.27866 11.3333 3.49967ZM6.99992 1.66634C5.35059 1.66634 5.08125 1.67101 4.31392 1.70501C3.79125 1.72967 3.44059 1.79967 3.11525 1.92634C2.82592 2.03834 2.61725 2.17234 2.39525 2.39501C2.18659 2.59661 2.02615 2.84273 1.92592 3.11501C1.79925 3.44167 1.72925 3.79167 1.70525 4.31367C1.67059 5.04967 1.66659 5.30701 1.66659 6.99967C1.66659 8.64901 1.67125 8.91834 1.70525 9.68567C1.72992 10.2077 1.79992 10.559 1.92592 10.8837C2.03925 11.1737 2.17259 11.3823 2.39392 11.6037C2.61859 11.8277 2.82725 11.9617 3.11392 12.0723C3.44325 12.1997 3.79392 12.2703 4.31392 12.2943C5.04992 12.329 5.30725 12.333 6.99992 12.333C8.64925 12.333 8.91858 12.3283 9.68592 12.2943C10.2073 12.2697 10.5586 12.1997 10.8839 12.0737C11.1726 11.961 11.3826 11.827 11.6039 11.6057C11.8286 11.381 11.9626 11.1723 12.0733 10.8857C12.1999 10.557 12.2706 10.2057 12.2946 9.68567C12.3293 8.94967 12.3333 8.69234 12.3333 6.99967C12.3333 5.35034 12.3286 5.08101 12.2946 4.31367C12.2699 3.79234 12.1999 3.44034 12.0733 3.11501C11.9728 2.84301 11.8126 2.59698 11.6046 2.39501C11.4031 2.18624 11.1569 2.02579 10.8846 1.92567C10.5579 1.79901 10.2073 1.72901 9.68592 1.70501C8.94992 1.67034 8.69259 1.66634 6.99992 1.66634ZM6.99992 0.333008C8.81125 0.333008 9.03725 0.339674 9.74792 0.373008C10.4579 0.406341 10.9413 0.517675 11.3666 0.683008C11.8066 0.852341 12.1773 1.08167 12.5479 1.45167C12.8869 1.78494 13.1492 2.18807 13.3166 2.63301C13.4813 3.05767 13.5933 3.54167 13.6266 4.25167C13.6579 4.96234 13.6666 5.18834 13.6666 6.99967C13.6666 8.81101 13.6599 9.03701 13.6266 9.74767C13.5933 10.4577 13.4813 10.941 13.3166 11.3663C13.1497 11.8115 12.8873 12.2148 12.5479 12.5477C12.2146 12.8866 11.8115 13.1488 11.3666 13.3163C10.9419 13.481 10.4579 13.593 9.74792 13.6263C9.03725 13.6577 8.81125 13.6663 6.99992 13.6663C5.18859 13.6663 4.96259 13.6597 4.25192 13.6263C3.54192 13.593 3.05859 13.481 2.63325 13.3163C2.18814 13.1493 1.78494 12.887 1.45192 12.5477C1.11286 12.2145 0.85054 11.8113 0.683252 11.3663C0.517919 10.9417 0.406585 10.4577 0.373252 9.74767C0.341919 9.03701 0.333252 8.81101 0.333252 6.99967C0.333252 5.18834 0.339919 4.96234 0.373252 4.25167C0.406585 3.54101 0.517919 3.05834 0.683252 2.63301C0.850076 2.18779 1.11245 1.78456 1.45192 1.45167C1.78503 1.1125 2.1882 0.850161 2.63325 0.683008C3.05859 0.517675 3.54125 0.406341 4.25192 0.373008C4.96259 0.341674 5.18859 0.333008 6.99992 0.333008Z" fill="#E6EFEA"/>
</svg>
