<svg width="16" height="16" viewBox="0 0 16 16" fill="none" xmlns="http://www.w3.org/2000/svg">
<g clip-path="url(#clip0_1144_19887)">
<path d="M8.00014 5.24219C6.47995 5.24219 5.24316 6.47897 5.24316 7.99916C5.24316 9.51935 6.47994 10.7561 8.00014 10.7561C9.52033 10.7561 10.7571 9.51935 10.7571 7.99916C10.7571 6.47897 9.52033 5.24219 8.00014 5.24219ZM8.00014 10.1187C6.83143 10.1187 5.88061 9.16786 5.88061 7.99916C5.88061 6.83046 6.83143 5.87964 8.00014 5.87964C9.16884 5.87964 10.1197 6.83046 10.1197 7.99916C10.1197 9.16786 9.16884 10.1187 8.00014 10.1187Z" fill="#452FF4"/>
<path d="M14.2399 5.41489C14.5369 4.09849 14.3378 3.02403 13.6569 2.34317C13.0893 1.77565 12.2356 1.53858 11.1874 1.65747C10.9921 1.67965 10.7908 1.71465 10.585 1.76093C9.8641 0.619348 8.96325 1.56718e-06 8 1.39876e-06C6.86324 1.20001e-06 5.81329 0.862248 5.04351 2.42789C4.76096 3.00255 4.52749 3.64928 4.34684 4.34684C3.64927 4.52746 3.00258 4.76096 2.42789 5.04351C0.862246 5.81329 -1.20001e-06 6.86324 -1.39876e-06 8C-1.56715e-06 8.96303 0.619058 9.86375 1.76019 10.5846C1.46301 11.9013 1.66215 12.9759 2.34314 13.6569C2.8145 14.1282 3.4866 14.3724 4.30228 14.3724C4.42527 14.3724 4.55162 14.3669 4.68095 14.3557C4.91735 14.3353 5.16331 14.2958 5.41648 14.2387C5.60915 14.5434 5.81555 14.8138 6.03295 15.043C6.62671 15.6691 7.3069 16 8 16C9.13676 16 10.1867 15.1378 10.9565 13.5721C11.239 12.9975 11.4725 12.3507 11.6532 11.6532C12.3507 11.4725 12.9974 11.239 13.5721 10.9565C15.1378 10.1867 16 9.13677 16 8C16 7.03274 15.3738 6.13122 14.2399 5.41489ZM1.93931 9.94069C1.09364 9.36555 0.637449 8.69332 0.637449 8C0.637449 7.1192 1.37319 6.27238 2.70916 5.61555C3.15735 5.39519 3.65342 5.2065 4.18591 5.05144C4.10298 5.4677 4.03783 5.8983 3.99123 6.33951C3.06276 7.48733 2.36188 8.69772 1.96937 9.8495C1.95895 9.88006 1.94926 9.91031 1.93931 9.94069ZM10.3845 13.2908C9.72765 14.6268 8.88079 15.3626 8 15.3626C7.30907 15.3626 6.63158 14.8951 6.06017 14.0598C6.59168 13.8858 7.1462 13.6419 7.70792 13.3321C7.86205 13.2471 7.91812 13.0533 7.83311 12.8991C7.74811 12.745 7.55423 12.6889 7.40013 12.7739C6.81472 13.0967 6.24997 13.3387 5.72245 13.4995C5.55107 13.1781 5.39295 12.8199 5.2516 12.4276C5.1919 12.262 5.00927 12.1761 4.84373 12.2358C4.67812 12.2955 4.59222 12.4781 4.65192 12.6437C4.78205 13.0049 4.92806 13.3439 5.08711 13.6573C4.09644 13.8434 3.28551 13.6977 2.79391 13.2061C2.30365 12.7158 2.15088 11.9179 2.34218 10.9133C2.37068 10.9277 2.39891 10.9422 2.42792 10.9565C3.92159 11.6909 5.90046 12.0954 8 12.0954C9.02591 12.0954 10.0228 11.9985 10.9486 11.8141C10.7935 12.3466 10.6048 12.8427 10.3845 13.2908ZM11.3938 9.40574C11.0995 9.75978 10.7826 10.1076 10.4451 10.4451C10.3207 10.5696 10.3207 10.7714 10.4451 10.8959C10.5074 10.9581 10.5889 10.9892 10.6705 10.9892C10.7521 10.9892 10.8336 10.9581 10.8959 10.8959C11.0142 10.7775 11.13 10.6577 11.2435 10.537C11.2084 10.7367 11.1689 10.9329 11.1256 11.1256C10.1592 11.3431 9.09848 11.4579 8.00003 11.4579C5.99608 11.4579 4.1171 11.0767 2.70919 10.3844C2.63799 10.3495 2.56889 10.3138 2.5011 10.2777C2.5235 10.2043 2.54719 10.1302 2.57278 10.0551C2.85676 9.22183 3.3149 8.35293 3.91264 7.50037C3.90754 7.66607 3.90467 7.83261 3.90467 8C3.90467 8.74282 3.95573 9.47812 4.05644 10.1855C4.08124 10.3598 4.24258 10.4808 4.41692 10.4561C4.5912 10.4313 4.71235 10.2699 4.68755 10.0957C4.59107 9.41795 4.54212 8.71289 4.54212 8.00003C4.54212 7.52277 4.56398 7.05272 4.60628 6.59433C4.90053 6.24026 5.21743 5.89243 5.5549 5.55497C5.67936 5.4305 5.67936 5.22869 5.5549 5.10419C5.43044 4.9797 5.22862 4.97973 5.10413 5.10419C4.98575 5.22257 4.87002 5.34234 4.75646 5.46311C4.79155 5.26336 4.83104 5.06712 4.87442 4.87446C5.8408 4.65693 6.90151 4.54212 8 4.54212C8.176 4.54212 8.31872 4.39943 8.31872 4.2234C8.31872 4.04736 8.176 3.90467 8 3.90467C6.97409 3.90467 5.97718 4.0015 5.05144 4.18595C5.2065 3.65342 5.39519 3.15732 5.61555 2.70916C6.27238 1.3732 7.1192 0.637451 8 0.637452C8.69342 0.637452 9.36574 1.09377 9.94094 1.93967C9.31426 2.1447 8.65629 2.4472 7.99111 2.83962C7.83949 2.92905 7.7891 3.1245 7.87853 3.27608C7.968 3.4277 8.16338 3.47812 8.315 3.38865C8.99187 2.98932 9.65584 2.69026 10.2778 2.50117C10.3138 2.56889 10.3495 2.63799 10.3845 2.70917C11.0767 4.11707 11.4579 5.99605 11.4579 8C11.4579 8.47726 11.436 8.94732 11.3938 9.40574ZM10.9565 2.42786C10.9425 2.39924 10.9281 2.37138 10.9138 2.34324C11.0311 2.32131 11.1465 2.30368 11.2594 2.29084C11.8509 2.22372 12.6687 2.25648 13.2061 2.79388C13.6963 3.28402 13.8491 4.0816 13.658 5.0859C13.3864 4.94859 13.0935 4.82021 12.7798 4.70203C12.6149 4.63994 12.4312 4.72322 12.3691 4.88794C12.3071 5.05266 12.3903 5.23653 12.5551 5.29855C12.8975 5.42754 13.2126 5.56988 13.4988 5.72281C13.4764 5.79605 13.4528 5.86993 13.4273 5.94483C13.1433 6.77814 12.6852 7.64708 12.0874 8.49964C12.0925 8.33393 12.0954 8.1674 12.0954 7.99997C12.0954 5.90043 11.6909 3.92156 10.9565 2.42786ZM13.2909 10.3844C12.8427 10.6048 12.3466 10.7935 11.8141 10.9486C11.897 10.5323 11.9622 10.1017 12.0088 9.6605C12.9373 8.51267 13.6381 7.30228 14.0306 6.15047C14.0407 6.1208 14.0501 6.09145 14.0598 6.06199C14.8941 6.63427 15.3625 7.3127 15.3625 8C15.3625 8.8808 14.6268 9.72762 13.2909 10.3844Z" fill="#452FF4"/>
<path d="M9.54595 4.62021C9.69585 4.6356 9.84679 4.65351 9.99465 4.67343C10.0091 4.67538 10.0235 4.67633 10.0377 4.67633C10.1948 4.67633 10.3316 4.56016 10.3531 4.40019C10.3766 4.22575 10.2543 4.06524 10.0799 4.04172C9.92536 4.02088 9.76762 4.00217 9.61107 3.98607C9.43542 3.96806 9.27943 4.09552 9.26146 4.2706C9.24348 4.44574 9.37088 4.60223 9.54595 4.62021Z" fill="#452FF4"/>
<path d="M7.99988 6.23047C7.02449 6.23047 6.23096 7.024 6.23096 7.99939C6.23096 8.17542 6.37365 8.31812 6.54968 8.31812C6.72571 8.31812 6.86841 8.17543 6.86841 7.99939C6.86841 7.37549 7.37598 6.86792 7.99988 6.86792C8.17588 6.86792 8.31861 6.72523 8.31861 6.54919C8.31861 6.37316 8.17588 6.23047 7.99988 6.23047Z" fill="#452FF4"/>
</g>
<defs>
<clipPath id="clip0_1144_19887">
<rect width="16" height="16" fill="white"/>
</clipPath>
</defs>
</svg>
