<svg width="12" height="12" viewBox="0 0 12 12" fill="none" xmlns="http://www.w3.org/2000/svg">
<path d="M5.99992 4.36634C6.61125 3.74167 7.40725 3.33301 8.33325 3.33301C9.30571 3.33301 10.2383 3.71932 10.926 4.40695C11.6136 5.09458 11.9999 6.02721 11.9999 6.99967V11.9997H10.6666V6.99967C10.6666 6.38084 10.4208 5.78734 9.98317 5.34976C9.54558 4.91217 8.95209 4.66634 8.33325 4.66634C7.71441 4.66634 7.12092 4.91217 6.68334 5.34976C6.24575 5.78734 5.99992 6.38084 5.99992 6.99967V11.9997H4.66659V3.66634H5.99992V4.36634ZM1.33325 2.33301C1.06804 2.33301 0.813682 2.22765 0.626145 2.04011C0.438609 1.85258 0.333252 1.59822 0.333252 1.33301C0.333252 1.06779 0.438609 0.813437 0.626145 0.625901C0.813682 0.438365 1.06804 0.333008 1.33325 0.333008C1.59847 0.333008 1.85282 0.438365 2.04036 0.625901C2.2279 0.813437 2.33325 1.06779 2.33325 1.33301C2.33325 1.59822 2.2279 1.85258 2.04036 2.04011C1.85282 2.22765 1.59847 2.33301 1.33325 2.33301ZM0.666585 3.66634H1.99992V11.9997H0.666585V3.66634Z" fill="#F6E7E7"/>
</svg>
