<svg width="36" height="36" viewBox="0 0 36 36" fill="none" xmlns="http://www.w3.org/2000/svg">
<path d="M18.0001 11.7969C14.5796 11.7969 11.7969 14.5796 11.7969 18.0001C11.7969 21.4205 14.5796 24.2032 18.0001 24.2032C21.4205 24.2032 24.2032 21.4205 24.2032 18.0001C24.2032 14.5796 21.4205 11.7969 18.0001 11.7969ZM18.0001 22.769C15.3705 22.769 13.2311 20.6296 13.2311 18.0001C13.2311 15.3705 15.3705 13.2311 18.0001 13.2311C20.6296 13.2311 22.769 15.3705 22.769 18.0001C22.769 20.6296 20.6296 22.769 18.0001 22.769Z" fill="#6B4A00"/>
<path d="M32.0398 12.1835C32.7081 9.22159 32.2599 6.80407 30.7279 5.27214C29.451 3.99521 27.5302 3.46181 25.1717 3.7293C24.7321 3.77921 24.2793 3.85795 23.8163 3.96208C22.1942 1.39353 20.1673 0 18 0C15.4423 0 13.0799 1.94006 11.3479 5.46275C10.7122 6.75574 10.1869 8.21087 9.78038 9.78038C8.21087 10.1868 6.75581 10.7122 5.46275 11.3479C1.94006 13.0799 0 15.4423 0 18C0 20.1668 1.39288 22.1934 3.96043 23.8154C3.29178 26.7778 3.73984 29.1957 5.27206 30.7279C6.33263 31.7885 7.84484 32.338 9.68013 32.338C9.95687 32.338 10.2411 32.3255 10.5322 32.3003C11.064 32.2544 11.6175 32.1655 12.1871 32.0371C12.6206 32.7226 13.085 33.3311 13.5742 33.8467C14.9101 35.2554 16.4405 36 18 36C20.5577 36 22.9201 34.0599 24.6521 30.5373C25.2879 29.2443 25.8132 27.7891 26.2196 26.2196C27.7891 25.8132 29.2443 25.2879 30.5373 24.6521C34.0599 22.9201 36 20.5577 36 18C36 15.8236 34.5911 13.7952 32.0398 12.1835ZM4.36346 22.3665C2.46069 21.0725 1.43426 19.56 1.43426 18C1.43426 16.0182 3.08969 14.1129 6.09562 12.635C7.10405 12.1392 8.22019 11.7146 9.4183 11.3657C9.2317 12.3023 9.08512 13.2712 8.98028 14.2639C6.8912 16.8465 5.31423 19.5699 4.43108 22.1614C4.40763 22.2301 4.38583 22.2982 4.36346 22.3665ZM23.3651 29.9044C21.8872 32.9103 19.9818 34.5657 18 34.5657C16.4454 34.5657 14.9211 33.5139 13.6354 31.6345C14.8313 31.243 16.0789 30.6942 17.3428 29.9973C17.6896 29.806 17.8158 29.3698 17.6245 29.023C17.4333 28.6762 16.997 28.55 16.6503 28.7413C15.3331 29.4676 14.0624 30.012 12.8755 30.3738C12.4899 29.6508 12.1342 28.8448 11.8161 27.9622C11.6818 27.5896 11.2709 27.3962 10.8984 27.5305C10.5258 27.6649 10.3325 28.0757 10.4668 28.4483C10.7596 29.261 11.0881 30.0239 11.446 30.7289C9.217 31.1477 7.39241 30.8199 6.2863 29.7137C5.18321 28.6106 4.83949 26.8153 5.26991 24.5549C5.33402 24.5874 5.39756 24.6201 5.46282 24.6521C8.82359 26.3045 13.276 27.2146 18 27.2146C20.3083 27.2146 22.5513 26.9967 24.6343 26.5817C24.2854 27.7798 23.8608 28.896 23.3651 29.9044ZM25.6359 21.1629C24.9739 21.9595 24.2608 22.7422 23.5015 23.5015C23.2215 23.7815 23.2215 24.2356 23.5015 24.5157C23.6416 24.6557 23.8251 24.7258 24.0086 24.7258C24.1921 24.7258 24.3757 24.6557 24.5157 24.5157C24.7821 24.2494 25.0424 23.9799 25.2979 23.7082C25.2189 24.1576 25.1301 24.599 25.0326 25.0326C22.8582 25.522 20.4716 25.7803 18.0001 25.7803C13.4912 25.7803 9.26347 24.9225 6.09569 23.365C5.93548 23.2863 5.78001 23.206 5.62747 23.1249C5.67789 22.9598 5.73117 22.793 5.78876 22.6241C6.42772 20.7491 7.45853 18.7941 8.80343 16.8758C8.79196 17.2487 8.78551 17.6234 8.78551 18C8.78551 19.6713 8.90039 21.3258 9.127 22.9174C9.1828 23.3095 9.54581 23.5818 9.93808 23.5263C10.3302 23.4704 10.6028 23.1073 10.547 22.7152C10.3299 21.1904 10.2198 19.604 10.2198 18.0001C10.2198 16.9262 10.269 15.8686 10.3641 14.8372C11.0262 14.0406 11.7392 13.258 12.4985 12.4987C12.7786 12.2186 12.7786 11.7645 12.4985 11.4844C12.2185 11.2043 11.7644 11.2044 11.4843 11.4844C11.2179 11.7508 10.9576 12.0203 10.702 12.292C10.781 11.8426 10.8698 11.401 10.9675 10.9675C13.1418 10.4781 15.5284 10.2198 18 10.2198C18.396 10.2198 18.7171 9.89871 18.7171 9.50264C18.7171 9.10657 18.396 8.78551 18 8.78551C15.6917 8.78551 13.4487 9.00337 11.3657 9.41837C11.7146 8.22019 12.1392 7.10398 12.635 6.09562C14.1129 3.08969 16.0182 1.43426 18 1.43426C19.5602 1.43426 21.0729 2.46098 22.3671 4.36425C20.9571 4.82558 19.4766 5.50621 17.98 6.38914C17.6389 6.59037 17.5255 7.03011 17.7267 7.37118C17.928 7.71232 18.3676 7.82577 18.7087 7.62447C20.2317 6.72598 21.7256 6.05309 23.1251 5.62762C23.2062 5.78001 23.2863 5.93548 23.3651 6.09562C24.9225 9.2634 25.7803 13.4911 25.7803 18C25.7803 19.0738 25.7311 20.1315 25.6359 21.1629ZM24.6522 5.46268C24.6206 5.39828 24.5882 5.3356 24.5562 5.27228C24.8201 5.22294 25.0795 5.18328 25.3336 5.15438C26.6645 5.00335 28.5047 5.07708 29.7138 6.28623C30.8166 7.38904 31.1604 9.18359 30.7305 11.4433C30.1195 11.1343 29.4603 10.8455 28.7545 10.5796C28.3836 10.4399 27.9702 10.6272 27.8306 10.9979C27.691 11.3685 27.8783 11.7822 28.2489 11.9217C29.0193 12.212 29.7284 12.5322 30.3722 12.8763C30.3219 13.0411 30.2688 13.2073 30.2114 13.3759C29.5724 15.2508 28.5416 17.2059 27.1966 19.1242C27.2081 18.7513 27.2146 18.3766 27.2146 17.9999C27.2146 13.276 26.3046 8.82351 24.6522 5.46268ZM29.9045 23.365C28.896 23.8608 27.7798 24.2854 26.5817 24.6343C26.7683 23.6978 26.9149 22.7288 27.0197 21.7361C29.1089 19.1535 30.6858 16.4301 31.5689 13.8386C31.5917 13.7718 31.6128 13.7057 31.6345 13.6395C33.5117 14.9271 34.5657 16.4536 34.5657 18C34.5657 19.9818 32.9103 21.8871 29.9045 23.365Z" fill="#6B4A00"/>
<path d="M21.4779 10.3955C21.8152 10.4301 22.1548 10.4704 22.4875 10.5152C22.52 10.5196 22.5523 10.5218 22.5843 10.5218C22.9378 10.5218 23.2456 10.2604 23.294 9.90043C23.347 9.50794 23.0717 9.14679 22.6792 9.09387C22.3316 9.04697 21.9767 9.00487 21.6244 8.96866C21.2292 8.92814 20.8782 9.21492 20.8378 9.60884C20.7973 10.0029 21.084 10.355 21.4779 10.3955Z" fill="#6B4A00"/>
<path d="M17.9996 14.02C15.805 14.02 14.0195 15.8055 14.0195 18.0001C14.0195 18.3962 14.3406 18.7172 14.7367 18.7172C15.1327 18.7172 15.4538 18.3962 15.4538 18.0001C15.4538 16.5963 16.5958 15.4543 17.9996 15.4543C18.3956 15.4543 18.7167 15.1332 18.7167 14.7372C18.7167 14.3411 18.3956 14.02 17.9996 14.02Z" fill="#6B4A00"/>
</svg>
