<svg width="34" height="36" viewBox="0 0 34 36" fill="none" xmlns="http://www.w3.org/2000/svg">
<path d="M14.0889 19.3545C13.8522 19.1178 13.4697 19.1178 13.233 19.3545C12.4589 20.1286 12.0322 21.1575 12.0322 22.2506C12.0322 23.3437 12.4589 24.3726 13.233 25.1467C13.3511 25.2647 13.506 25.324 13.6609 25.324C13.8159 25.324 13.9708 25.2647 14.0889 25.1467C14.3255 24.91 14.3255 24.5275 14.0889 24.2909C13.5435 23.7455 13.2427 23.0205 13.2427 22.2506C13.2427 21.4807 13.5435 20.7556 14.0889 20.2103C14.3249 19.9737 14.3249 19.5905 14.0889 19.3545Z" fill="#A21111"/>
<path d="M14.3022 7.92913C12.0755 7.54299 9.94993 9.03128 9.55954 11.2556C9.28355 12.8231 7.78496 13.8726 6.21798 13.5979C5.88691 13.5428 5.57521 13.7607 5.51711 14.0899C5.45901 14.4192 5.67932 14.7333 6.00857 14.7908C6.24764 14.8326 6.4849 14.8531 6.71913 14.8531C8.66923 14.8531 10.402 13.4514 10.7513 11.465C11.0261 9.898 12.5271 8.8485 14.0928 9.12207C14.4227 9.17594 14.7362 8.95865 14.7937 8.63001C14.8518 8.30075 14.6315 7.98724 14.3022 7.92913Z" fill="#A21111"/>
<path d="M32.4706 13.7293C32.0021 13.0012 31.7406 11.4227 31.7987 10.4622C31.9349 8.21851 30.7426 5.9906 28.9002 5.04521C28.5449 4.86242 28.2254 4.77043 27.9433 4.68932C27.4585 4.54951 27.2582 4.49141 27.0748 4.11071C26.1088 2.10371 25.0436 1.82167 23.013 1.95361C22.8248 1.95725 22.5699 1.6752 22.3091 1.39679C21.8606 0.916829 21.2614 0.275874 20.3112 0.166929L20.0055 0.136667C18.9875 0.136667 18.0028 0.439895 17.3043 0.968274C17.1064 1.11716 16.8619 1.11838 16.6948 0.971906C15.865 0.243796 14.6146 -0.295478 13.7545 0.180245C12.8116 0.366055 12.2075 0.964038 11.7615 1.40587C11.4086 1.75509 11.178 1.97722 10.9862 1.95301C8.95798 1.82288 7.89093 2.10371 6.92435 4.1101C6.74157 4.4908 6.54123 4.54891 6.05643 4.68872C5.77499 4.76982 5.45542 4.86182 5.09953 5.0446C3.25717 5.9906 2.06544 8.21791 2.20101 10.4615C2.25912 11.4227 1.99765 13.0006 1.52919 13.7287C0.374384 15.5256 0.374384 18.0344 1.52919 19.8307C1.70774 20.108 1.96921 20.4305 2.27183 20.8046C2.81171 21.4716 3.71594 22.587 3.68508 23.0979C3.54769 25.3591 4.92765 27.9646 6.76093 28.9058C7.09079 29.0753 7.14648 29.2466 7.27116 29.7652C7.34015 30.0521 7.4261 30.4086 7.6113 30.7923C8.10942 31.8279 8.89079 32.1245 9.46093 32.3424C10.0274 32.5572 10.2617 32.6468 10.3476 33.2678C10.5467 34.7101 11.3184 35.6827 12.4642 35.9363C12.656 35.9781 12.8539 35.9993 13.0543 35.9993C14.3447 35.9993 15.7525 35.1429 16.644 33.7593C16.7511 33.5934 16.9291 33.5747 16.9999 33.5747C17.0707 33.5747 17.2486 33.5928 17.3558 33.7593C18.3859 35.3577 20.1048 36.2492 21.5356 35.9369C22.6819 35.6833 23.453 34.7107 23.6521 33.2684C23.7381 32.6474 23.9723 32.5578 24.5388 32.343C25.1089 32.1257 25.8903 31.8285 26.389 30.793C26.5736 30.4092 26.6596 30.0521 26.7286 29.7659C26.8539 29.2478 26.9089 29.0759 27.2388 28.9064C29.0715 27.9652 30.4515 25.3603 30.3147 23.0985C30.2838 22.5876 31.188 21.4716 31.7279 20.8052C32.0305 20.4312 32.292 20.1086 32.4706 19.8314C33.6254 18.035 33.6254 15.5262 32.4706 13.7293ZM32.1092 17.1265C32.0554 16.8475 31.8211 16.6326 31.5264 16.6326C31.1923 16.6326 30.9211 16.9038 30.9211 17.2379C30.9211 17.572 31.1923 17.8431 31.5264 17.8431C31.7709 17.8431 31.9791 17.6967 32.0741 17.4878C31.9894 18.0429 31.8024 18.5767 31.5173 19.0554C31.1874 19.0603 30.9211 19.3278 30.9211 19.6589C30.9211 19.7212 30.9393 19.7775 30.9562 19.8338C30.9011 19.9022 30.8449 19.9718 30.7874 20.0426C30.7135 20.1334 30.6385 20.2266 30.564 20.3198C30.4878 20.2853 30.4048 20.2635 30.3159 20.2635C29.9818 20.2635 29.7106 20.5346 29.7106 20.8687C29.7106 21.0164 29.7699 21.1472 29.8577 21.2525C29.7536 21.4038 29.658 21.5545 29.5696 21.7052C29.4588 21.5678 29.296 21.474 29.1054 21.474C28.7713 21.474 28.5001 21.7451 28.5001 22.0792C28.5001 22.4133 28.7713 22.6845 29.1054 22.6845C29.1248 22.6845 29.1417 22.6748 29.1605 22.6736C29.1217 22.8431 29.0969 23.0101 29.1066 23.1717C29.1211 23.4084 29.1096 23.6529 29.0818 23.8998C28.7592 23.9131 28.5001 24.1746 28.5001 24.5002C28.5001 24.7296 28.6327 24.9215 28.8203 25.0244C28.7217 25.3173 28.6079 25.606 28.4662 25.8802C28.4826 25.8251 28.5001 25.7712 28.5001 25.7107C28.5001 25.3766 28.229 25.1055 27.8949 25.1055C27.5608 25.1055 27.2896 25.3766 27.2896 25.7107C27.2896 26.0448 27.5608 26.316 27.8949 26.316C28.0553 26.316 28.1987 26.2512 28.3071 26.1495C27.8755 26.8873 27.3114 27.5083 26.6868 27.8291C26.3963 27.978 26.1911 28.1547 26.0368 28.3435C26.0616 28.277 26.0798 28.2067 26.0798 28.1317C26.0798 27.7976 25.8086 27.5264 25.4745 27.5264C25.1404 27.5264 24.8693 27.7976 24.8693 28.1317C24.8693 28.4658 25.1404 28.7369 25.4745 28.7369C25.6276 28.7369 25.7638 28.6752 25.8703 28.5814C25.7003 28.8749 25.6234 29.1878 25.5526 29.4814C25.5151 29.6375 25.4703 29.7979 25.4164 29.9595C25.1108 29.9898 24.8687 30.2392 24.8687 30.5533C24.8687 30.6368 24.8856 30.7167 24.9165 30.7893C24.718 30.9642 24.4874 31.0653 24.2283 31.1658C24.1024 31.1737 23.9911 31.2215 23.8972 31.2941C23.3089 31.5308 22.6172 31.9169 22.4531 33.1032C22.363 33.7581 22.0851 34.5763 21.2747 34.7549C20.3451 34.9613 19.1231 34.2665 18.3738 33.1032C18.0754 32.6408 17.5621 32.3642 17.0005 32.3642C16.4388 32.3642 15.9256 32.6408 15.6266 33.1032C14.8779 34.2665 13.6589 34.9601 12.7262 34.7549C11.9158 34.5757 11.638 33.7581 11.5478 33.1032C11.3638 31.7716 10.5135 31.4478 9.89247 31.2118C9.38952 31.0205 8.99187 30.8692 8.70317 30.2682C8.6148 30.0854 8.56033 29.9045 8.51312 29.7259C8.51615 29.7017 8.52704 29.6805 8.52704 29.6557C8.52704 27.987 9.88461 26.6295 11.5533 26.6295C11.8874 26.6295 12.1585 26.3589 12.1585 26.0242C12.1585 25.6895 11.8874 25.419 11.5533 25.419C9.7914 25.419 8.27828 26.5012 7.64036 28.0349C7.54412 27.9628 7.43881 27.8932 7.31473 27.8291C5.91843 27.1125 4.78783 24.936 4.89436 23.1717C4.89678 23.1287 4.8877 23.0845 4.88649 23.041C4.8877 23.0258 4.89496 23.0131 4.89496 22.9974C4.89496 20.9946 6.52368 19.3659 8.52644 19.3659C11.1962 19.3659 13.3684 17.1937 13.3684 14.524C13.3684 14.1893 13.0972 13.9187 12.7632 13.9187C12.4291 13.9187 12.1579 14.1893 12.1579 14.524C12.1579 16.5267 10.5292 18.1554 8.52644 18.1554C6.51702 18.1554 4.79026 19.3865 4.05851 21.1338C3.79402 20.7622 3.49745 20.3936 3.21299 20.0426C2.94426 19.7109 2.69066 19.398 2.54843 19.1759C1.64116 17.7657 1.64116 15.7944 2.54843 14.3835C3.1797 13.4018 3.48232 11.5813 3.40969 10.3877C3.30377 8.63673 4.24674 6.84279 5.65273 6.12073C5.90391 5.99181 6.15266 5.92039 6.39234 5.85079C6.52186 5.81326 6.65502 5.77392 6.78878 5.72611C6.89106 5.91616 7.08474 6.05052 7.31594 6.05052C8.31702 6.05052 9.13168 6.86518 9.13168 7.86626C9.13168 8.20096 9.40283 8.4715 9.73693 8.4715C10.071 8.4715 10.3422 8.20096 10.3422 7.86626C10.3422 6.38643 9.2727 5.15657 7.86732 4.89571C7.91877 4.81521 7.9684 4.73048 8.015 4.63425C8.59846 3.42194 9.04695 3.13082 10.1618 3.13082C10.3821 3.13082 10.6291 3.14232 10.9081 3.16047C11.6622 3.20708 12.1664 2.70775 12.6131 2.26532C13.0373 1.84588 13.4374 1.44884 14.0626 1.35382L14.2617 1.3169L14.3574 1.22853C14.5795 1.12866 15.287 1.34474 15.8971 1.88038C16.4612 2.37486 17.268 2.41844 17.9077 2.01293C17.9979 2.06679 18.0978 2.10553 18.2104 2.10553C18.5317 2.10553 18.7878 1.85314 18.8083 1.53721C19.0989 1.43976 19.4166 1.37621 19.7428 1.35442L20.0261 1.35987C20.0358 1.35987 20.0436 1.3641 20.0533 1.3641C20.0436 1.4101 20.0267 1.45308 20.0267 1.5015C20.0267 1.83559 20.2979 2.10674 20.632 2.10674C20.8196 2.10674 20.9812 2.01595 21.0919 1.88159C21.1979 1.98327 21.3068 2.09645 21.4254 2.22295C21.4357 2.23384 21.446 2.24474 21.4563 2.25563C21.325 2.36639 21.2372 2.52678 21.2372 2.71199C21.2372 3.04608 21.5083 3.31723 21.8424 3.31723C22.0682 3.31723 22.2576 3.18771 22.3617 3.00432C22.5778 3.11145 22.8181 3.17379 23.0917 3.16108C23.3731 3.14353 23.6116 3.13626 23.8331 3.13687C23.9426 3.24823 24.0946 3.31723 24.2634 3.31723C24.3875 3.31723 24.4964 3.27063 24.5927 3.20647C24.7918 3.25429 24.9619 3.33478 25.1186 3.44554C24.971 3.5557 24.8687 3.72396 24.8687 3.92248C24.8687 4.25657 25.1398 4.52772 25.4739 4.52772C25.6198 4.52772 25.7481 4.46962 25.8522 4.38367C25.8964 4.4672 25.9393 4.54104 25.9847 4.63485C26.0301 4.72927 26.0798 4.81279 26.13 4.89208C26.0979 4.96592 26.0792 5.04702 26.0792 5.13297C26.0792 5.46706 26.3503 5.73821 26.6844 5.73821C26.8006 5.73821 26.9029 5.69706 26.9949 5.64016C27.1892 5.72732 27.3859 5.78724 27.5759 5.84232C27.4077 5.95005 27.2896 6.1292 27.2896 6.34346C27.2896 6.67756 27.5608 6.9487 27.8949 6.9487C28.229 6.9487 28.5001 6.67756 28.5001 6.34346C28.5001 6.29262 28.4832 6.24662 28.4711 6.19941C29.2101 6.62127 29.8057 7.33909 30.1773 8.18704C29.9116 8.25119 29.7106 8.47937 29.7106 8.76444C29.7106 9.09854 29.9818 9.36969 30.3159 9.36969C30.3885 9.36969 30.4557 9.35153 30.5204 9.32853C30.5804 9.67836 30.6124 10.0336 30.5907 10.3889C30.5858 10.4712 30.587 10.5632 30.5852 10.651C30.5029 10.6092 30.4139 10.5808 30.3159 10.5808C29.9818 10.5808 29.7106 10.8519 29.7106 11.186C29.7106 11.5201 29.9818 11.7913 30.3159 11.7913C30.4375 11.7913 30.5447 11.7465 30.6397 11.6841C30.7438 12.6023 30.9919 13.5737 31.3751 14.2425C31.116 14.3115 30.9217 14.5367 30.9217 14.8169C30.9217 15.151 31.1929 15.4221 31.527 15.4221C31.6613 15.4221 31.7788 15.3701 31.8792 15.2963C32.0784 15.8809 32.1546 16.5067 32.1092 17.1265Z" fill="#A21111"/>
<path d="M21.8426 32.3689C22.1768 32.3689 22.4478 32.098 22.4478 31.7637C22.4478 31.4294 22.1768 31.1584 21.8426 31.1584C21.5083 31.1584 21.2373 31.4294 21.2373 31.7637C21.2373 32.098 21.5083 32.3689 21.8426 32.3689Z" fill="#A21111"/>
<path d="M19.4217 32.3689C19.7559 32.3689 20.0269 32.098 20.0269 31.7637C20.0269 31.4294 19.7559 31.1584 19.4217 31.1584C19.0874 31.1584 18.8164 31.4294 18.8164 31.7637C18.8164 32.098 19.0874 32.3689 19.4217 32.3689Z" fill="#A21111"/>
<path d="M20.6316 31.1585C20.9659 31.1585 21.2369 30.8875 21.2369 30.5532C21.2369 30.219 20.9659 29.948 20.6316 29.948C20.2973 29.948 20.0264 30.219 20.0264 30.5532C20.0264 30.8875 20.2973 31.1585 20.6316 31.1585Z" fill="#A21111"/>
<path d="M23.0525 31.1585C23.3868 31.1585 23.6578 30.8875 23.6578 30.5532C23.6578 30.219 23.3868 29.948 23.0525 29.948C22.7182 29.948 22.4473 30.219 22.4473 30.5532C22.4473 30.8875 22.7182 31.1585 23.0525 31.1585Z" fill="#A21111"/>
<path d="M18.2107 31.1585C18.545 31.1585 18.816 30.8875 18.816 30.5532C18.816 30.219 18.545 29.948 18.2107 29.948C17.8764 29.948 17.6055 30.219 17.6055 30.5532C17.6055 30.8875 17.8764 31.1585 18.2107 31.1585Z" fill="#A21111"/>
<path d="M23.0525 28.7376C23.3868 28.7376 23.6578 28.4666 23.6578 28.1323C23.6578 27.7981 23.3868 27.5271 23.0525 27.5271C22.7182 27.5271 22.4473 27.7981 22.4473 28.1323C22.4473 28.4666 22.7182 28.7376 23.0525 28.7376Z" fill="#A21111"/>
<path d="M18.2107 28.7376C18.545 28.7376 18.816 28.4666 18.816 28.1323C18.816 27.7981 18.545 27.5271 18.2107 27.5271C17.8764 27.5271 17.6055 27.7981 17.6055 28.1323C17.6055 28.4666 17.8764 28.7376 18.2107 28.7376Z" fill="#A21111"/>
<path d="M19.4217 27.5271C19.7559 27.5271 20.0269 27.2562 20.0269 26.9219C20.0269 26.5876 19.7559 26.3167 19.4217 26.3167C19.0874 26.3167 18.8164 26.5876 18.8164 26.9219C18.8164 27.2562 19.0874 27.5271 19.4217 27.5271Z" fill="#A21111"/>
<path d="M20.6316 26.3164C20.9659 26.3164 21.2369 26.0455 21.2369 25.7112C21.2369 25.3769 20.9659 25.106 20.6316 25.106C20.2973 25.106 20.0264 25.3769 20.0264 25.7112C20.0264 26.0455 20.2973 26.3164 20.6316 26.3164Z" fill="#A21111"/>
<path d="M23.0525 26.3164C23.3868 26.3164 23.6578 26.0455 23.6578 25.7112C23.6578 25.3769 23.3868 25.106 23.0525 25.106C22.7182 25.106 22.4473 25.3769 22.4473 25.7112C22.4473 26.0455 22.7182 26.3164 23.0525 26.3164Z" fill="#A21111"/>
<path d="M18.2107 26.3164C18.545 26.3164 18.816 26.0455 18.816 25.7112C18.816 25.3769 18.545 25.106 18.2107 25.106C17.8764 25.106 17.6055 25.3769 17.6055 25.7112C17.6055 26.0455 17.8764 26.3164 18.2107 26.3164Z" fill="#A21111"/>
<path d="M21.8426 25.106C22.1768 25.106 22.4478 24.835 22.4478 24.5008C22.4478 24.1665 22.1768 23.8955 21.8426 23.8955C21.5083 23.8955 21.2373 24.1665 21.2373 24.5008C21.2373 24.835 21.5083 25.106 21.8426 25.106Z" fill="#A21111"/>
<path d="M18.2107 23.8955C18.545 23.8955 18.816 23.6246 18.816 23.2903C18.816 22.956 18.545 22.6851 18.2107 22.6851C17.8764 22.6851 17.6055 22.956 17.6055 23.2903C17.6055 23.6246 17.8764 23.8955 18.2107 23.8955Z" fill="#A21111"/>
<path d="M21.8426 22.6851C22.1768 22.6851 22.4478 22.4141 22.4478 22.0799C22.4478 21.7456 22.1768 21.4746 21.8426 21.4746C21.5083 21.4746 21.2373 21.7456 21.2373 22.0799C21.2373 22.4141 21.5083 22.6851 21.8426 22.6851Z" fill="#A21111"/>
<path d="M19.4217 22.6851C19.7559 22.6851 20.0269 22.4141 20.0269 22.0799C20.0269 21.7456 19.7559 21.4746 19.4217 21.4746C19.0874 21.4746 18.8164 21.7456 18.8164 22.0799C18.8164 22.4141 19.0874 22.6851 19.4217 22.6851Z" fill="#A21111"/>
<path d="M18.2107 21.4747C18.545 21.4747 18.816 21.2037 18.816 20.8694C18.816 20.5351 18.545 20.2642 18.2107 20.2642C17.8764 20.2642 17.6055 20.5351 17.6055 20.8694C17.6055 21.2037 17.8764 21.4747 18.2107 21.4747Z" fill="#A21111"/>
<path d="M19.4217 20.2642C19.7559 20.2642 20.0269 19.9932 20.0269 19.659C20.0269 19.3247 19.7559 19.0537 19.4217 19.0537C19.0874 19.0537 18.8164 19.3247 18.8164 19.659C18.8164 19.9932 19.0874 20.2642 19.4217 20.2642Z" fill="#A21111"/>
<path d="M20.6316 19.0535C20.9659 19.0535 21.2369 18.7825 21.2369 18.4483C21.2369 18.114 20.9659 17.843 20.6316 17.843C20.2973 17.843 20.0264 18.114 20.0264 18.4483C20.0264 18.7825 20.2973 19.0535 20.6316 19.0535Z" fill="#A21111"/>
<path d="M23.0525 19.0535C23.3868 19.0535 23.6578 18.7825 23.6578 18.4483C23.6578 18.114 23.3868 17.843 23.0525 17.843C22.7182 17.843 22.4473 18.114 22.4473 18.4483C22.4473 18.7825 22.7182 19.0535 23.0525 19.0535Z" fill="#A21111"/>
<path d="M18.2107 19.0535C18.545 19.0535 18.816 18.7825 18.816 18.4483C18.816 18.114 18.545 17.843 18.2107 17.843C17.8764 17.843 17.6055 18.114 17.6055 18.4483C17.6055 18.7825 17.8764 19.0535 18.2107 19.0535Z" fill="#A21111"/>
<path d="M21.8426 17.8431C22.1768 17.8431 22.4478 17.5721 22.4478 17.2378C22.4478 16.9035 22.1768 16.6326 21.8426 16.6326C21.5083 16.6326 21.2373 16.9035 21.2373 17.2378C21.2373 17.5721 21.5083 17.8431 21.8426 17.8431Z" fill="#A21111"/>
<path d="M20.6316 16.6326C20.9659 16.6326 21.2369 16.3616 21.2369 16.0274C21.2369 15.6931 20.9659 15.4221 20.6316 15.4221C20.2973 15.4221 20.0264 15.6931 20.0264 16.0274C20.0264 16.3616 20.2973 16.6326 20.6316 16.6326Z" fill="#A21111"/>
<path d="M23.0525 16.6326C23.3868 16.6326 23.6578 16.3616 23.6578 16.0274C23.6578 15.6931 23.3868 15.4221 23.0525 15.4221C22.7182 15.4221 22.4473 15.6931 22.4473 16.0274C22.4473 16.3616 22.7182 16.6326 23.0525 16.6326Z" fill="#A21111"/>
<path d="M18.2107 16.6326C18.545 16.6326 18.816 16.3616 18.816 16.0274C18.816 15.6931 18.545 15.4221 18.2107 15.4221C17.8764 15.4221 17.6055 15.6931 17.6055 16.0274C17.6055 16.3616 17.8764 16.6326 18.2107 16.6326Z" fill="#A21111"/>
<path d="M19.4217 15.4222C19.7559 15.4222 20.0269 15.1512 20.0269 14.8169C20.0269 14.4826 19.7559 14.2117 19.4217 14.2117C19.0874 14.2117 18.8164 14.4826 18.8164 14.8169C18.8164 15.1512 19.0874 15.4222 19.4217 15.4222Z" fill="#A21111"/>
<path d="M20.6316 14.2117C20.9659 14.2117 21.2369 13.9407 21.2369 13.6065C21.2369 13.2722 20.9659 13.0012 20.6316 13.0012C20.2973 13.0012 20.0264 13.2722 20.0264 13.6065C20.0264 13.9407 20.2973 14.2117 20.6316 14.2117Z" fill="#A21111"/>
<path d="M21.8426 13.0013C22.1768 13.0013 22.4478 12.7303 22.4478 12.396C22.4478 12.0617 22.1768 11.7908 21.8426 11.7908C21.5083 11.7908 21.2373 12.0617 21.2373 12.396C21.2373 12.7303 21.5083 13.0013 21.8426 13.0013Z" fill="#A21111"/>
<path d="M19.4217 13.0013C19.7559 13.0013 20.0269 12.7303 20.0269 12.396C20.0269 12.0617 19.7559 11.7908 19.4217 11.7908C19.0874 11.7908 18.8164 12.0617 18.8164 12.396C18.8164 12.7303 19.0874 13.0013 19.4217 13.0013Z" fill="#A21111"/>
<path d="M18.2107 11.7906C18.545 11.7906 18.816 11.5196 18.816 11.1853C18.816 10.8511 18.545 10.5801 18.2107 10.5801C17.8764 10.5801 17.6055 10.8511 17.6055 11.1853C17.6055 11.5196 17.8764 11.7906 18.2107 11.7906Z" fill="#A21111"/>
<path d="M21.8426 10.5801C22.1768 10.5801 22.4478 10.3091 22.4478 9.97488C22.4478 9.64061 22.1768 9.36963 21.8426 9.36963C21.5083 9.36963 21.2373 9.64061 21.2373 9.97488C21.2373 10.3091 21.5083 10.5801 21.8426 10.5801Z" fill="#A21111"/>
<path d="M19.4217 10.5801C19.7559 10.5801 20.0269 10.3091 20.0269 9.97488C20.0269 9.64061 19.7559 9.36963 19.4217 9.36963C19.0874 9.36963 18.8164 9.64061 18.8164 9.97488C18.8164 10.3091 19.0874 10.5801 19.4217 10.5801Z" fill="#A21111"/>
<path d="M20.6316 9.36967C20.9659 9.36967 21.2369 9.09869 21.2369 8.76442C21.2369 8.43016 20.9659 8.15918 20.6316 8.15918C20.2973 8.15918 20.0264 8.43016 20.0264 8.76442C20.0264 9.09869 20.2973 9.36967 20.6316 9.36967Z" fill="#A21111"/>
<path d="M23.0525 9.36967C23.3868 9.36967 23.6578 9.09869 23.6578 8.76442C23.6578 8.43016 23.3868 8.15918 23.0525 8.15918C22.7182 8.15918 22.4473 8.43016 22.4473 8.76442C22.4473 9.09869 22.7182 9.36967 23.0525 9.36967Z" fill="#A21111"/>
<path d="M21.8426 8.15922C22.1768 8.15922 22.4478 7.88824 22.4478 7.55398C22.4478 7.21971 22.1768 6.94873 21.8426 6.94873C21.5083 6.94873 21.2373 7.21971 21.2373 7.55398C21.2373 7.88824 21.5083 8.15922 21.8426 8.15922Z" fill="#A21111"/>
<path d="M19.4217 8.15922C19.7559 8.15922 20.0269 7.88824 20.0269 7.55398C20.0269 7.21971 19.7559 6.94873 19.4217 6.94873C19.0874 6.94873 18.8164 7.21971 18.8164 7.55398C18.8164 7.88824 19.0874 8.15922 19.4217 8.15922Z" fill="#A21111"/>
<path d="M18.2107 6.94877C18.545 6.94877 18.816 6.67779 18.816 6.34353C18.816 6.00926 18.545 5.73828 18.2107 5.73828C17.8764 5.73828 17.6055 6.00926 17.6055 6.34353C17.6055 6.67779 17.8764 6.94877 18.2107 6.94877Z" fill="#A21111"/>
<path d="M21.8426 5.73832C22.1768 5.73832 22.4478 5.46735 22.4478 5.13308C22.4478 4.79881 22.1768 4.52783 21.8426 4.52783C21.5083 4.52783 21.2373 4.79881 21.2373 5.13308C21.2373 5.46735 21.5083 5.73832 21.8426 5.73832Z" fill="#A21111"/>
<path d="M23.0525 4.52763C23.3868 4.52763 23.6578 4.25665 23.6578 3.92238C23.6578 3.58812 23.3868 3.31714 23.0525 3.31714C22.7182 3.31714 22.4473 3.58812 22.4473 3.92238C22.4473 4.25665 22.7182 4.52763 23.0525 4.52763Z" fill="#A21111"/>
<path d="M18.2107 4.52763C18.545 4.52763 18.816 4.25665 18.816 3.92238C18.816 3.58812 18.545 3.31714 18.2107 3.31714C17.8764 3.31714 17.6055 3.58812 17.6055 3.92238C17.6055 4.25665 17.8764 4.52763 18.2107 4.52763Z" fill="#A21111"/>
<path d="M19.4217 3.31718C19.7559 3.31718 20.0269 3.0462 20.0269 2.71193C20.0269 2.37767 19.7559 2.10669 19.4217 2.10669C19.0874 2.10669 18.8164 2.37767 18.8164 2.71193C18.8164 3.0462 19.0874 3.31718 19.4217 3.31718Z" fill="#A21111"/>
<path d="M24.2634 29.948C24.5977 29.948 24.8687 29.6771 24.8687 29.3428C24.8687 29.0085 24.5977 28.7375 24.2634 28.7375C23.9292 28.7375 23.6582 29.0085 23.6582 29.3428C23.6582 29.6771 23.9292 29.948 24.2634 29.948Z" fill="#A21111"/>
<path d="M26.6843 27.5271C27.0186 27.5271 27.2896 27.2562 27.2896 26.9219C27.2896 26.5876 27.0186 26.3167 26.6843 26.3167C26.3501 26.3167 26.0791 26.5876 26.0791 26.9219C26.0791 27.2562 26.3501 27.5271 26.6843 27.5271Z" fill="#A21111"/>
<path d="M25.4744 26.3164C25.8087 26.3164 26.0796 26.0455 26.0796 25.7112C26.0796 25.3769 25.8087 25.106 25.4744 25.106C25.1401 25.106 24.8691 25.3769 24.8691 25.7112C24.8691 26.0455 25.1401 26.3164 25.4744 26.3164Z" fill="#A21111"/>
<path d="M26.6843 25.106C27.0186 25.106 27.2896 24.835 27.2896 24.5008C27.2896 24.1665 27.0186 23.8955 26.6843 23.8955C26.3501 23.8955 26.0791 24.1665 26.0791 24.5008C26.0791 24.835 26.3501 25.106 26.6843 25.106Z" fill="#A21111"/>
<path d="M27.8953 23.8955C28.2296 23.8955 28.5005 23.6246 28.5005 23.2903C28.5005 22.956 28.2296 22.6851 27.8953 22.6851C27.561 22.6851 27.29 22.956 27.29 23.2903C27.29 23.6246 27.561 23.8955 27.8953 23.8955Z" fill="#A21111"/>
<path d="M26.6843 22.6851C27.0186 22.6851 27.2896 22.4141 27.2896 22.0799C27.2896 21.7456 27.0186 21.4746 26.6843 21.4746C26.3501 21.4746 26.0791 21.7456 26.0791 22.0799C26.0791 22.4141 26.3501 22.6851 26.6843 22.6851Z" fill="#A21111"/>
<path d="M24.2634 22.6851C24.5977 22.6851 24.8687 22.4141 24.8687 22.0799C24.8687 21.7456 24.5977 21.4746 24.2634 21.4746C23.9292 21.4746 23.6582 21.7456 23.6582 22.0799C23.6582 22.4141 23.9292 22.6851 24.2634 22.6851Z" fill="#A21111"/>
<path d="M26.6843 20.2642C27.0186 20.2642 27.2896 19.9932 27.2896 19.659C27.2896 19.3247 27.0186 19.0537 26.6843 19.0537C26.3501 19.0537 26.0791 19.3247 26.0791 19.659C26.0791 19.9932 26.3501 20.2642 26.6843 20.2642Z" fill="#A21111"/>
<path d="M29.1052 20.2642C29.4395 20.2642 29.7105 19.9932 29.7105 19.659C29.7105 19.3247 29.4395 19.0537 29.1052 19.0537C28.771 19.0537 28.5 19.3247 28.5 19.659C28.5 19.9932 28.771 20.2642 29.1052 20.2642Z" fill="#A21111"/>
<path d="M24.2634 20.2642C24.5977 20.2642 24.8687 19.9932 24.8687 19.659C24.8687 19.3247 24.5977 19.0537 24.2634 19.0537C23.9292 19.0537 23.6582 19.3247 23.6582 19.659C23.6582 19.9932 23.9292 20.2642 24.2634 20.2642Z" fill="#A21111"/>
<path d="M26.6843 17.8431C27.0186 17.8431 27.2896 17.5721 27.2896 17.2378C27.2896 16.9035 27.0186 16.6326 26.6843 16.6326C26.3501 16.6326 26.0791 16.9035 26.0791 17.2378C26.0791 17.5721 26.3501 17.8431 26.6843 17.8431Z" fill="#A21111"/>
<path d="M29.1052 17.8431C29.4395 17.8431 29.7105 17.5721 29.7105 17.2378C29.7105 16.9035 29.4395 16.6326 29.1052 16.6326C28.771 16.6326 28.5 16.9035 28.5 17.2378C28.5 17.5721 28.771 17.8431 29.1052 17.8431Z" fill="#A21111"/>
<path d="M25.4744 16.6326C25.8087 16.6326 26.0796 16.3616 26.0796 16.0274C26.0796 15.6931 25.8087 15.4221 25.4744 15.4221C25.1401 15.4221 24.8691 15.6931 24.8691 16.0274C24.8691 16.3616 25.1401 16.6326 25.4744 16.6326Z" fill="#A21111"/>
<path d="M26.6843 15.4222C27.0186 15.4222 27.2896 15.1512 27.2896 14.8169C27.2896 14.4826 27.0186 14.2117 26.6843 14.2117C26.3501 14.2117 26.0791 14.4826 26.0791 14.8169C26.0791 15.1512 26.3501 15.4222 26.6843 15.4222Z" fill="#A21111"/>
<path d="M27.8953 14.2117C28.2296 14.2117 28.5005 13.9407 28.5005 13.6065C28.5005 13.2722 28.2296 13.0012 27.8953 13.0012C27.561 13.0012 27.29 13.2722 27.29 13.6065C27.29 13.9407 27.561 14.2117 27.8953 14.2117Z" fill="#A21111"/>
<path d="M25.4744 14.2117C25.8087 14.2117 26.0796 13.9407 26.0796 13.6065C26.0796 13.2722 25.8087 13.0012 25.4744 13.0012C25.1401 13.0012 24.8691 13.2722 24.8691 13.6065C24.8691 13.9407 25.1401 14.2117 25.4744 14.2117Z" fill="#A21111"/>
<path d="M26.6843 13.0013C27.0186 13.0013 27.2896 12.7303 27.2896 12.396C27.2896 12.0617 27.0186 11.7908 26.6843 11.7908C26.3501 11.7908 26.0791 12.0617 26.0791 12.396C26.0791 12.7303 26.3501 13.0013 26.6843 13.0013Z" fill="#A21111"/>
<path d="M24.2634 13.0013C24.5977 13.0013 24.8687 12.7303 24.8687 12.396C24.8687 12.0617 24.5977 11.7908 24.2634 11.7908C23.9292 11.7908 23.6582 12.0617 23.6582 12.396C23.6582 12.7303 23.9292 13.0013 24.2634 13.0013Z" fill="#A21111"/>
<path d="M27.8953 11.7906C28.2296 11.7906 28.5005 11.5196 28.5005 11.1853C28.5005 10.8511 28.2296 10.5801 27.8953 10.5801C27.561 10.5801 27.29 10.8511 27.29 11.1853C27.29 11.5196 27.561 11.7906 27.8953 11.7906Z" fill="#A21111"/>
<path d="M29.1052 10.5801C29.4395 10.5801 29.7105 10.3091 29.7105 9.97488C29.7105 9.64061 29.4395 9.36963 29.1052 9.36963C28.771 9.36963 28.5 9.64061 28.5 9.97488C28.5 10.3091 28.771 10.5801 29.1052 10.5801Z" fill="#A21111"/>
<path d="M27.8953 9.36967C28.2296 9.36967 28.5005 9.09869 28.5005 8.76442C28.5005 8.43016 28.2296 8.15918 27.8953 8.15918C27.561 8.15918 27.29 8.43016 27.29 8.76442C27.29 9.09869 27.561 9.36967 27.8953 9.36967Z" fill="#A21111"/>
<path d="M25.4744 9.36967C25.8087 9.36967 26.0796 9.09869 26.0796 8.76442C26.0796 8.43016 25.8087 8.15918 25.4744 8.15918C25.1401 8.15918 24.8691 8.43016 24.8691 8.76442C24.8691 9.09869 25.1401 9.36967 25.4744 9.36967Z" fill="#A21111"/>
<path d="M29.1052 8.15922C29.4395 8.15922 29.7105 7.88824 29.7105 7.55398C29.7105 7.21971 29.4395 6.94873 29.1052 6.94873C28.771 6.94873 28.5 7.21971 28.5 7.55398C28.5 7.88824 28.771 8.15922 29.1052 8.15922Z" fill="#A21111"/>
<path d="M24.2634 8.15922C24.5977 8.15922 24.8687 7.88824 24.8687 7.55398C24.8687 7.21971 24.5977 6.94873 24.2634 6.94873C23.9292 6.94873 23.6582 7.21971 23.6582 7.55398C23.6582 7.88824 23.9292 8.15922 24.2634 8.15922Z" fill="#A21111"/>
<path d="M25.4744 6.94877C25.8087 6.94877 26.0796 6.67779 26.0796 6.34353C26.0796 6.00926 25.8087 5.73828 25.4744 5.73828C25.1401 5.73828 24.8691 6.00926 24.8691 6.34353C24.8691 6.67779 25.1401 6.94877 25.4744 6.94877Z" fill="#A21111"/>
<path d="M30.3162 16.6326C30.6505 16.6326 30.9214 16.3616 30.9214 16.0274C30.9214 15.6931 30.6505 15.4221 30.3162 15.4221C29.9819 15.4221 29.7109 15.6931 29.7109 16.0274C29.7109 16.3616 29.9819 16.6326 30.3162 16.6326Z" fill="#A21111"/>
<path d="M30.3162 14.2117C30.6505 14.2117 30.9214 13.9407 30.9214 13.6065C30.9214 13.2722 30.6505 13.0012 30.3162 13.0012C29.9819 13.0012 29.7109 13.2722 29.7109 13.6065C29.7109 13.9407 29.9819 14.2117 30.3162 14.2117Z" fill="#A21111"/>
</svg>
