<svg width="36" height="32" viewBox="0 0 36 32" fill="none" xmlns="http://www.w3.org/2000/svg">
<path d="M14.3511 13.4828C14.4427 13.5207 14.5388 13.5392 14.6341 13.5392C14.8265 13.5392 15.0157 13.4639 15.1572 13.3225L23.6538 4.82592C23.7925 4.68717 23.8705 4.49906 23.8705 4.30285C23.8705 4.10663 23.7925 3.91844 23.6537 3.77977C21.2439 1.37072 18.0407 0.0439453 14.6342 0.0439453C14.2257 0.0439453 13.8945 0.375093 13.8945 0.783635V12.7994C13.8945 13.0985 14.0747 13.3682 14.3511 13.4828ZM15.3739 1.54699C17.8619 1.70716 20.1947 2.67327 22.0678 4.31974L15.3739 11.0136V1.54699Z" fill="#005C30"/>
<path d="M32.8832 12.2426C33.8918 11.4709 34.544 10.2557 34.544 8.89059C34.544 6.56399 32.6511 4.67108 30.3246 4.67108C27.998 4.67108 26.1051 6.56399 26.1051 8.89059C26.1051 9.93588 26.4881 10.8928 27.1198 11.6306H24.1585C23.5463 10.4112 22.7466 9.30302 21.7755 8.33193C21.4867 8.04306 21.0184 8.04306 20.7295 8.33193L13.4951 15.5656V5.33564C13.4951 4.92709 13.1639 4.59595 12.7554 4.59595C5.72201 4.59595 0 10.318 0 17.3513C0 24.3851 5.72201 30.1075 12.7554 30.1075C19.7891 30.1075 25.5115 24.3851 25.5115 17.3513C25.5115 16.9688 25.4937 16.5852 25.4596 16.204H25.5993C25.8782 16.204 26.1051 16.4308 26.1051 16.7097V30.2143C26.1051 31.1747 26.8865 31.9561 27.8469 31.9561H32.8022C33.7626 31.9561 34.5441 31.1747 34.5441 30.2143V23.9006C35.3919 23.5963 36.0001 22.7844 36.0001 21.8331V17.3061C36 15.097 34.7304 13.1799 32.8832 12.2426ZM27.5844 8.89059C27.5844 7.37967 28.8136 6.15046 30.3245 6.15046C31.8353 6.15046 33.0645 7.37967 33.0645 8.89059C33.0645 10.4015 31.8353 11.6306 30.3245 11.6306C28.8136 11.6306 27.5844 10.4015 27.5844 8.89059ZM12.0157 6.09939V15.7856L4.53835 9.63728C6.43865 7.61435 9.07529 6.29069 12.0157 6.09939ZM1.47938 17.3513C1.47938 14.901 2.26547 12.6311 3.59808 10.7795L11.8464 17.5617L7.40577 27.2761C3.87979 25.3676 1.47938 21.6346 1.47938 17.3513ZM24.0321 17.3513C24.0321 23.5693 18.9734 28.6281 12.7554 28.6281C11.3456 28.6281 9.99578 28.3672 8.75061 27.8925L13.3736 17.7791L21.2355 9.9179C21.7029 10.4502 22.1164 11.0228 22.4744 11.6306H20.9527C19.6918 11.6306 18.666 12.6564 18.666 13.9173C18.666 15.1782 19.6918 16.204 20.9527 16.204H23.972C24.0106 16.5848 24.0321 16.9685 24.0321 17.3513ZM34.5206 21.8331C34.5206 22.2287 34.1984 22.5503 33.8027 22.5495C33.3964 22.5485 33.0646 22.9102 33.0646 23.3164V30.2144C33.0646 30.3593 32.9471 30.4768 32.8021 30.4768H31.3671C31.1997 30.4768 31.0642 30.3412 31.0642 30.1739V24.2922C31.0642 23.8982 30.7669 23.5542 30.3738 23.5287C29.943 23.5009 29.5848 23.842 29.5848 24.2668V30.1739C29.5848 30.3412 29.4492 30.4768 29.2819 30.4768H27.8468C27.7018 30.4768 27.5844 30.3593 27.5844 30.2143V16.7097C27.5844 15.6134 26.6956 14.7247 25.5993 14.7247H20.9764C20.5562 14.7247 20.1885 14.4136 20.1491 13.9953C20.1038 13.5154 20.4818 13.1101 20.9527 13.1101H30.3245C32.642 13.1101 34.5206 14.9887 34.5206 17.3062V21.8331Z" fill="#005C30"/>
</svg>
